<?xml version="1.0" encoding="UTF-8" standalone="no"?>
<!DOCTYPE svg PUBLIC "-//W3C//DTD SVG 1.1//EN" "http://www.w3.org/Graphics/SVG/1.1/DTD/svg11.dtd">
<svg width="100%" height="100%" viewBox="0 0 45 57" version="1.1" xmlns="http://www.w3.org/2000/svg" xmlns:xlink="http://www.w3.org/1999/xlink" xml:space="preserve" xmlns:serif="http://www.serif.com/" style="fill-rule:evenodd;clip-rule:evenodd;stroke-linejoin:round;stroke-miterlimit:1.41421;">
    <g transform="matrix(1,0,0,1,-7964.94,-1353)">
        <g transform="matrix(1,0,0,7.23333,7091,0)">
            <g transform="matrix(0.622431,0,0,0.0860503,863.915,186.706)">
                <path d="M52.3,4L34.1,15L34.1,29.1L16.1,39.1L16.1,75L51.5,95.5L87,74.8L87,36.5L52.3,4ZM52.1,5.8L85.6,37.1L85.6,37.3L70.3,47.7L35.6,15.8L52.1,5.8ZM35.4,30L69.3,61.8L52.3,72.2L17.7,39.9L35.4,30Z" style="fill:rgb(80,188,238);fill-rule:nonzero;"/>
            </g>
        </g>
    </g>
</svg>
