<svg xmlns="http://www.w3.org/2000/svg" width="64" height="64" viewBox="0 0 64 64">
  <defs>
    <linearGradient id="icon-cities-1-a" x1="0%" y1="50%" y2="50%">
      <stop offset="0%" stop-color="#88DFF8"/>
      <stop offset="100%" stop-color="#50BCEE"/>
    </linearGradient>
  </defs>
  <g fill="none" fill-rule="evenodd">
    <ellipse cx="13" cy="57" fill="#EBEBEB" rx="6" ry="2"/>
    <ellipse cx="32" cy="57" fill="#EBEBEB" rx="6" ry="2"/>
    <ellipse cx="51" cy="57" fill="#EBEBEB" rx="6" ry="2"/>
    <path fill="url(#icon-cities-1-a)" d="M36.1388124,19.1720532 C37.602899,19.1721415 38.7890369,20.4126121 38.7890369,21.877691 L40.2902068,35.2783784 C40.2902068,36.7422203 39.1039806,37.7858272 37.6406004,37.7858272 L36.814436,37.7858272 L34.7750276,55.2046355 C34.7750276,56.095735 34.0508425,57 33.1597822,57 L30.8389817,57 C29.9473917,57 29.2238246,56.095735 29.2238246,55.2046355 L27.1856523,37.7858272 L26.3593996,37.7858272 C24.8959311,37.7857389 23.7091752,36.679132 23.7091752,35.2152901 L25.2098153,21.9497035 C25.2098153,20.484713 26.3965713,19.1721415 27.8594217,19.1720532 L36.1388124,19.1720532 Z M17.4296373,19.1720532 C18.8930174,19.1721415 20.0797734,20.4126121 20.0792436,21.877691 L21.5804135,35.2783784 C21.5804135,36.7422203 20.3941873,37.7858272 18.9308072,37.7858272 L18.1046428,37.7858272 L16.0657641,55.2046355 C16.0657641,56.095735 15.341579,57 14.449989,57 L12.1298065,57 C11.2382165,57 10.5145611,56.095735 10.5145611,55.2046355 L8.47577073,37.7858272 L7.64960636,37.7858272 C6.18613789,37.7857389 5,36.6786019 5,35.2152901 L6.50002207,21.9497035 C6.50002207,20.484713 7.68677801,19.1721415 9.15024649,19.1720532 L17.4296373,19.1720532 Z M54.8486057,19.1720532 C56.3120742,19.1721415 57.4988301,20.484713 57.4988301,21.9497035 L59,35.2152901 C59,36.6786019 57.8138621,37.7858272 56.3503936,37.7858272 L55.5242293,37.7858272 L53.4842028,55.2046355 C53.4842028,56.095735 52.7600177,57 51.8684276,57 L49.5488632,57 C48.6571849,57 47.9336178,56.095735 47.9336178,55.2046355 L45.8954455,37.7858272 L45.0686631,37.7858272 C43.6058127,37.7857389 42.4190567,36.679132 42.4190567,35.2152901 L43.9189905,21.9497035 C43.9189905,20.484713 45.1063645,19.1721415 46.569833,19.1720532 L54.8486057,19.1720532 Z M50.7086013,9 C53.1604297,9 55.1510117,10.991963 55.1510117,13.4456897 C55.1510117,15.8993279 53.1604297,17.8912909 50.7086013,17.8912909 C48.2567729,17.8912909 46.2661909,15.8993279 46.2661909,13.4456897 C46.2661909,10.991963 48.2567729,9 50.7086013,9 Z M13.2901626,9 C15.741991,9 17.732573,10.991963 17.732573,13.4456897 C17.732573,15.8993279 15.741991,17.8912909 13.2901626,17.8912909 C10.8383342,17.8912909 8.84784048,15.8993279 8.84784048,13.4456897 C8.84784048,10.991963 10.8383342,9 13.2901626,9 Z M32.0000441,9 C34.4518726,9 36.4424546,10.991963 36.4424546,13.4456897 C36.4424546,15.8993279 34.4518726,17.8912909 32.0000441,17.8912909 C29.5482157,17.8912909 27.5576337,15.8993279 27.5576337,13.4456897 C27.5576337,10.991963 29.5482157,9 32.0000441,9 Z"/>
  </g>
</svg>
