<svg xmlns="http://www.w3.org/2000/svg" width="64" height="64" viewBox="0 0 64 64">
  <defs>
    <linearGradient id="icon-perspectives-2-a" x1="100%" x2="0%" y1="88.927%" y2="37.051%">
      <stop offset="0%" stop-color="#F3929A"/>
      <stop offset="100%" stop-color="#EC4C57"/>
    </linearGradient>
    <linearGradient id="icon-perspectives-2-b" x1="33.879%" x2="50%" y1="21.371%" y2="100%">
      <stop offset="0%" stop-color="#F3929A"/>
      <stop offset="100%" stop-color="#EC4C57"/>
    </linearGradient>
  </defs>
  <g fill="none" fill-rule="evenodd" transform="translate(7 4)">
    <path fill="url(#icon-perspectives-2-a)" d="M27.0002442,28.6383186 L50.256056,42.2043347 C50.9716321,42.621758 51.2133328,43.5402356 50.7959095,44.2558118 C50.3784862,44.971388 49.4600086,45.2130886 48.7444324,44.7956653 L25.5004599,31.2365555 L2.25604549,44.7956714 C1.54046593,45.2130889 0.621990313,44.9713809 0.204572778,44.2558013 C-0.212844757,43.5402217 0.0288633191,42.6217461 0.744442876,42.2043286 L24.0002442,28.6385704 L24.0002442,1.5 C24.0002442,0.671572875 24.6718171,0 25.5002442,0 C26.3286713,0 27.0002442,0.671572875 27.0002442,1.5 L27.0002442,28.6383186 Z" opacity=".4"/>
    <path fill="url(#icon-perspectives-2-b)" d="M24.7444376,58.7956684 L0.744437644,44.7956684 C0.283611084,44.5268529 0.000244181911,44.0335006 0.000244181911,43.5 L0.000244181911,15.5 C0.000244222648,14.9968681 0.248310742,14.4937363 0.744442876,14.2043286 L24.7446656,0.204328596 C25.2117104,-0.0681117157 25.789236,-0.0681093834 26.2562786,0.204334701 L50.256056,14.2043347 C50.6904413,14.4576472 51.0002442,14.9249976 51.0002442,15.5 L51.0002442,43.5 C51.0002442,44.0335006 50.7168773,44.5268529 50.2560507,44.7956684 L26.2560507,58.7956684 C25.7527427,59.0892647 25.1846245,59.0523633 24.7444373,58.795669 L24.7444376,58.7956684 Z M24.0002442,54.8884445 L24.0002442,30.3616814 L3.00024418,18.1115677 L3.00024418,42.6384445 L24.0002442,54.8884445 L24.0002442,54.8884445 Z M27.0002442,30.3615555 L27.0002442,54.8884445 L48.0002442,42.6384445 L48.0002442,18.1115555 L27.0002442,30.3615555 L27.0002442,30.3615555 Z M25.5001363,27.7633816 L46.5232919,15.499988 L25.5004599,3.2365555 L4.47720677,15.500006 L25.5001363,27.7633816 Z"/>
  </g>
</svg>
