<svg xmlns="http://www.w3.org/2000/svg" width="64" height="64" viewBox="0 0 64 64">
  <defs>
    <linearGradient id="icon-cities-2-a" x1="0%" y1="50%" y2="50%">
      <stop offset="0%" stop-color="#88DFF8"/>
      <stop offset="100%" stop-color="#50BCEE"/>
    </linearGradient>
  </defs>
  <g fill="none" fill-rule="evenodd">
    <ellipse cx="34" cy="58" fill="#EBEBEB" rx="15" ry="5" transform="matrix(1 0 0 -1 0 116)"/>
    <path fill="url(#icon-cities-2-a)" d="M50.1606178,25.0114411 C50.708354,23.874281 51.050061,22.5364339 51.050061,21.1984886 C51.050061,16.3152387 47.1525912,12.3685604 42.2300004,12.1678735 C42.2983418,11.8333626 42.2983418,11.49895 42.2983418,11.1644391 C42.2983418,6.08050231 38.1275064,2 33.0682328,2 C27.9396128,2 23.7687774,6.08050231 23.7687774,11.0975762 C23.7687774,11.4319888 23.7687774,11.7664997 23.8371188,12.1010107 L23.7687774,12.1010107 C18.6411624,12.1010107 14.470327,16.181513 14.470327,21.1984886 C14.470327,22.6701596 14.812034,24.0080067 15.4271066,25.2789909 C11.5989832,27.2189969 9,31.1656752 9,35.7144141 C9,41.8686482 13.8552544,46.952585 20.0089954,47.4208216 L20.0089954,47.4877828 L29.5808114,47.4877828 L29.5808114,58 C30.7209367,58.6666667 31.8606662,59 33,59 C34.1393338,59 35.2786559,58.6666667 36.4179664,58 L36.4179664,47.4208216 L45.6480754,47.4208216 C52.0068406,47.086409 56.9987778,41.9356094 56.9987778,35.6475513 C57.0671192,30.8981255 54.2631118,26.884486 50.1606178,25.0114411 Z"/>
  </g>
</svg>
