<svg xmlns="http://www.w3.org/2000/svg" width="64" height="64" viewBox="0 0 64 64">
  <defs>
    <linearGradient id="icon-datalab-2-a" x1="26.077%" x2="97.562%" y1="42.291%" y2="50%">
      <stop offset="0%" stop-color="#AFDD81"/>
      <stop offset="100%" stop-color="#77B84A"/>
    </linearGradient>
    <linearGradient id="icon-datalab-2-b" x1="26.077%" x2="97.562%" y1="42.339%" y2="50%">
      <stop offset="0%" stop-color="#AFDD81"/>
      <stop offset="100%" stop-color="#77B84A"/>
    </linearGradient>
    <linearGradient id="icon-datalab-2-c" x1="26.077%" x2="97.562%" y1="41.505%" y2="50%">
      <stop offset="0%" stop-color="#AFDD81"/>
      <stop offset="100%" stop-color="#77B84A"/>
    </linearGradient>
  </defs>
  <g fill="none" fill-rule="evenodd">
    <polygon fill="url(#icon-datalab-2-a)" points="32 61.867 64 43.2 32 27.2 0 45.867" opacity=".5"/>
    <path fill="url(#icon-datalab-2-b)" d="M32,48.96 L16.64,41.28 L32,32.32 L47.36,40 L32,48.96 Z M15.36,40.64 L2.13162821e-14,32.96 L15.36,24 L30.72,31.68 L15.36,40.64 Z M48.64,39.36 L33.28,31.68 L48.64,22.72 L64,30.4 L48.64,39.36 Z M32,31.04 L16.64,23.36 L32,14.4 L47.36,22.08 L32,31.04 Z" opacity=".7"/>
    <path fill="url(#icon-datalab-2-c)" d="M7.52941176,23.2156863 L-6.03961325e-14,19.4509804 L7.52941176,15.0588235 L15.0588235,18.8235294 L7.52941176,23.2156863 Z M23.8431373,32 L16.3137255,28.2352941 L23.8431373,23.8431373 L31.372549,27.6078431 L23.8431373,32 Z M23.8431373,13.1764706 L16.3137255,9.41176471 L23.8431373,5.01960784 L31.372549,8.78431373 L23.8431373,13.1764706 Z M32,17.5686275 L24.4705882,13.8039216 L32,9.41176471 L39.5294118,13.1764706 L32,17.5686275 Z M48.3137255,26.3529412 L40.7843137,22.5882353 L48.3137255,18.1960784 L55.8431373,21.9607843 L48.3137255,26.3529412 Z M15.6862745,18.1960784 L8.15686275,14.4313725 L15.6862745,10.0392157 L23.2156863,13.8039216 L15.6862745,18.1960784 Z M32,26.9803922 L24.4705882,23.2156863 L32,18.8235294 L39.5294118,22.5882353 L32,26.9803922 Z M32,8.15686275 L24.4705882,4.39215686 L32,4.4408921e-14 L39.5294118,3.76470588 L32,8.15686275 Z M40.1568627,12.5490196 L32.627451,8.78431373 L40.1568627,4.39215686 L47.6862745,8.15686275 L40.1568627,12.5490196 Z M48.3137255,16.9411765 L40.7843137,13.1764706 L48.3137255,8.78431373 L55.8431373,12.5490196 L48.3137255,16.9411765 Z M40.1568627,21.9607843 L32.627451,18.1960784 L40.1568627,13.8039216 L47.6862745,17.5686275 L40.1568627,21.9607843 Z M23.8431373,22.5882353 L16.3137255,18.8235294 L23.8431373,14.4313725 L31.372549,18.1960784 L23.8431373,22.5882353 Z M40.1568627,31.372549 L32.627451,27.6078431 L40.1568627,23.2156863 L47.6862745,26.9803922 L40.1568627,31.372549 Z M15.6862745,27.6078431 L8.15686275,23.8431373 L15.6862745,19.4509804 L23.2156863,23.2156863 L15.6862745,27.6078431 Z M32,36.3921569 L24.4705882,32.627451 L32,28.2352941 L39.5294118,32 L32,36.3921569 Z M56.4705882,21.3333333 L48.9411765,17.5686275 L56.4705882,13.1764706 L64,16.9411765 L56.4705882,21.3333333 Z"/>
  </g>
</svg>
