<svg xmlns="http://www.w3.org/2000/svg" width="64" height="64" viewBox="0 0 64 64">
  <defs>
    <linearGradient id="icon-challenge-2-a" x1="28.424%" x2="50%" y1="40.258%" y2="67.014%">
      <stop offset="0%" stop-color="#F3929A"/>
      <stop offset="100%" stop-color="#EC4C57"/>
    </linearGradient>
    <linearGradient id="icon-challenge-2-b" x1="28.424%" x2="50%" y1="21.371%" y2="100%">
      <stop offset="0%" stop-color="#F3929A"/>
      <stop offset="100%" stop-color="#EC4C57"/>
    </linearGradient>
    <linearGradient id="icon-challenge-2-c" x1="42.955%" x2="50%" y1="21.371%" y2="100%">
      <stop offset="0%" stop-color="#F3929A"/>
      <stop offset="100%" stop-color="#EC4C57"/>
    </linearGradient>
    <linearGradient id="icon-challenge-2-d" x1="68.388%" x2="35.356%" y1="50%" y2="87.063%">
      <stop offset="0%" stop-color="#F3929A"/>
      <stop offset="100%" stop-color="#EC4C57"/>
    </linearGradient>
    <linearGradient id="icon-challenge-2-e" x1="50%" x2="50%" y1="100%" y2="0%">
      <stop offset="0%" stop-color="#F3929A"/>
      <stop offset="100%" stop-color="#EC4C57"/>
    </linearGradient>
  </defs>
  <g fill="none" fill-rule="evenodd">
    <g transform="translate(8)">
      <polygon fill="url(#icon-challenge-2-a)" points="24 28 48 14 24 0 0 14"/>
      <circle cx="24" cy="23" r="12" fill="url(#icon-challenge-2-b)"/>
      <polygon fill="url(#icon-challenge-2-c)" points="24 28 48 14 48 42 24 56"/>
      <polygon fill="url(#icon-challenge-2-d)" points="0 28 24 14 24 42 0 56" transform="matrix(-1 0 0 1 24 0)"/>
      <polygon fill="url(#icon-challenge-2-e)" fill-opacity=".4" points="24 56 48 42 24 28 0 42" opacity=".3"/>
    </g>
    <polygon fill="#EBEBEB" points="28 58 32 56 8 42 4 44"/>
  </g>
</svg>
