<svg xmlns="http://www.w3.org/2000/svg" width="64" height="64" viewBox="0 0 64 64">
  <defs>
    <linearGradient id="icon-perspectives-1-a" x1="28.424%" x2="50%" y1="21.371%" y2="100%">
      <stop offset="0%" stop-color="#F3929A"/>
      <stop offset="100%" stop-color="#EC4C57"/>
    </linearGradient>
  </defs>
  <path fill="url(#icon-perspectives-1-a)" fill-rule="evenodd" d="M32,59 C17.0883118,59 5,46.9116882 5,32 C5,17.0883118 17.0883118,5 32,5 C46.9116882,5 59,17.0883118 59,32 C59,46.9116882 46.9116882,59 32,59 Z M31.8,49.8 C41.7411255,49.8 49.8,41.7411255 49.8,31.8 C49.8,21.8588745 41.7411255,13.8 31.8,13.8 C21.8588745,13.8 13.8,21.8588745 13.8,31.8 C13.8,41.7411255 21.8588745,49.8 31.8,49.8 Z M31.8,39.8 C27.381722,39.8 23.8,36.218278 23.8,31.8 C23.8,27.381722 27.381722,23.8 31.8,23.8 C36.218278,23.8 39.8,27.381722 39.8,31.8 C39.8,36.218278 36.218278,39.8 31.8,39.8 Z"/>
</svg>
