<?xml version="1.0" encoding="UTF-8" standalone="no"?>
<!DOCTYPE svg PUBLIC "-//W3C//DTD SVG 1.1//EN" "http://www.w3.org/Graphics/SVG/1.1/DTD/svg11.dtd">
<svg width="100%" height="100%" viewBox="0 0 1124 1098" version="1.1" xmlns="http://www.w3.org/2000/svg" xmlns:xlink="http://www.w3.org/1999/xlink" xml:space="preserve" xmlns:serif="http://www.serif.com/" style="fill-rule:evenodd;clip-rule:evenodd;stroke-linejoin:round;stroke-miterlimit:1.41421;">
    <g transform="matrix(1,0,0,1,-19837,-1508)">
        <g id="logo-intro" transform="matrix(0.320422,0,0,0.442686,19837,1508)">
            <rect x="0" y="0" width="3507.87" height="2480.32" style="fill:none;"/>
            <g transform="matrix(10.7055,0,0,7.74879,-11619.2,-17234.2)">
                <circle cx="1249.18" cy="2259.09" r="34.983" style="fill:url(#_Linear1);"/>
            </g>
            <g transform="matrix(5.21471,0,0,2.44491,-159254,-25893.6)">
                <path d="M30876.1,10812.6C30907.8,10812.8 30939.2,10833.3 30961.3,10868.3C30982.8,10902.2 30995.2,10949.1 30995.4,10996.8C30995.5,11073.2 30995.5,11149.7 30995.4,11226.2C30995.2,11273.2 30983,11320.2 30961.6,11354.2C30939.4,11389.5 30907.9,11410.4 30875.7,11410.4C30843.1,11410.4 30810.8,11388.9 30788.3,11351.8C30768.4,11319 30756.7,11275 30756,11229.7C30756,11228.5 30756,11227.4 30756,11226.2C30755.9,11149.7 30755.9,11073.2 30756,10996.8C30756.1,10948.5 30769,10900.8 30791.1,10866.7C30813,10832.9 30843.5,10813 30874.9,10812.6C30875.3,10812.6 30875.7,10812.6 30876.1,10812.6ZM30875.4,10845.8C30840.2,10846.1 30805.6,10877.5 30788.7,10927.2C30781.4,10948.6 30777.6,10972.8 30777.5,10996.9C30777.4,11073.3 30777.4,11149.7 30777.5,11226.1C30777.6,11274.7 30793.3,11323.4 30822.1,11352.5C30847.7,11378.4 30881.3,11384.3 30910.3,11367.4C30946.9,11346.1 30973.7,11287.9 30973.8,11226.1C30974,11149.7 30974,11073.3 30973.8,10996.9C30973.8,10949.4 30958.6,10902.1 30932,10873.3C30915.9,10855.8 30896.3,10846.2 30876.7,10845.8C30876.2,10845.8 30875.8,10845.8 30875.4,10845.8Z" style="fill:rgb(38,38,38);fill-rule:nonzero;"/>
            </g>
            <g transform="matrix(3.23312,0,0,2.02168,-98070.9,-21236.1)">
                <path d="M30876.1,10812.6C30916.8,10812.8 30956.5,10838.6 30977.9,10878.9C30989.2,10900.4 30995.3,10925.6 30995.4,10950.7C30995.5,11057.9 30995.5,11165.1 30995.4,11272.2C30995.1,11330.9 30960,11387.5 30909.5,11404.7C30867.6,11419 30819.1,11404.5 30788.3,11366.5C30767.9,11341.2 30756.1,11306.8 30756,11272.2C30755.9,11165.1 30755.9,11057.9 30756,10950.7C30756.2,10903.8 30778.2,10858.1 30812.7,10833.3C30831.3,10820 30853,10812.8 30874.9,10812.6C30875.3,10812.6 30875.7,10812.6 30876.1,10812.6ZM30875.4,10839.4C30837.8,10839.6 30801,10866.9 30786.2,10909.2C30781.6,10922.2 30779.3,10936.4 30779.2,10950.4C30778.7,11057.8 30778.7,11165.1 30779.2,11272.5C30779.4,11301 30788.9,11329.2 30807.2,11350.5C30833.5,11381 30875.8,11392 30911.3,11375.7C30942.6,11361.2 30966.4,11326.8 30971.2,11287.8C30971.9,11282.7 30972.2,11277.6 30972.2,11272.5C30972.7,11165.1 30972.7,11057.8 30972.2,10950.4C30971.9,10913.2 30955.2,10876 30925.2,10855.2C30910.5,10845 30893.4,10839.5 30876.3,10839.4C30876,10839.4 30875.7,10839.4 30875.4,10839.4Z" style="fill:rgb(38,38,38);fill-rule:nonzero;"/>
            </g>
            <g transform="matrix(2.10797,0,0,1.52577,-63567.7,-16008.2)">
                <path d="M30776.6,11594.4C30811.4,11680.6 30895.1,11737 30988,11737C31113.8,11737 31216,11634.8 31216,11509C31216,11479.7 31210.4,11450.7 31199.4,11423.6L30776.6,11594.4Z" style="fill:url(#_Linear2);"/>
            </g>
            <g transform="matrix(1.05398,-5.81259e-17,0,0.762887,-31147.2,-7401.95)">
                <path d="M30790.5,11395C30770.5,11429.7 30760,11469 30760,11509C30760,11634.8 30862.2,11737 30988,11737C31069.5,11737 31144.7,11693.5 31185.5,11623L30790.5,11395Z" style="fill:url(#_Linear3);"/>
            </g>
            <g transform="matrix(0.711781,-3.92539e-17,0,0.515197,-20621.1,-4881.25)">
                <path d="M30762.2,11477.3C30760.7,11487.8 30760,11498.4 30760,11509C30760,11634.8 30862.2,11737 30988,11737C31101.7,11737 31198,11653.3 31213.8,11540.7L30762.2,11477.3Z" style="fill:url(#_Linear4);"/>
            </g>
            <g transform="matrix(1.05398,-5.81259e-17,0,0.762887,-30666.6,-7759.03)">
                <path d="M30790.5,11623C30831.3,11693.5 30906.5,11737 30988,11737C31113.8,11737 31216,11634.8 31216,11509C31216,11469 31205.5,11429.7 31185.5,11395L30790.5,11623Z" style="fill:url(#_Linear5);"/>
            </g>
            <g transform="matrix(1.02577,0,0,1.94279,-29435.6,-21434.6)">
                <rect x="30369.5" y="11376" width="73.019" height="122" style="fill:rgb(38,38,38);fill-rule:nonzero;"/>
            </g>
            <g transform="matrix(0.821285,0,0,0.594458,-23696.1,-5938.04)">
                <path d="M30760,11509C30760,11634.9 30862.1,11737 30988,11737C31113.9,11737 31216,11634.9 31216,11509L30760,11509Z" style="fill:url(#_Linear6);"/>
            </g>
            <g transform="matrix(2.18661,0,0,2.25894,-64388.7,-24701.5)">
                <rect x="30092" y="11486" width="314" height="24" style="fill:rgb(38,38,38);fill-rule:nonzero;"/>
            </g>
            <g transform="matrix(0.711781,0,0,0.515197,-20302.7,-4657.62)">
                <path d="M30760,11509C30760,11634.9 30862.1,11737 30988,11737C31113.9,11737 31216,11634.9 31216,11509L30760,11509Z" style="fill:rgb(38,38,38);"/>
            </g>
            <g transform="matrix(19.3251,0,0,13.9877,-63793.1,-57936.3)">
                <path d="M3316.88,4305.16C3317.64,4305.51 3318.31,4305.97 3318.9,4306.53C3319.41,4307.02 3319.88,4307.64 3320.3,4308.39C3320.71,4309.15 3320.92,4310.09 3320.92,4311.22C3320.92,4312.24 3320.72,4313.2 3320.32,4314.1C3319.91,4315.01 3319.34,4315.79 3318.6,4316.47C3317.86,4317.14 3316.98,4317.68 3315.97,4318.08C3314.97,4318.48 3313.86,4318.69 3312.64,4318.69L3301.14,4318.69L3301.14,4293.25L3312.04,4293.25C3313.2,4293.25 3314.26,4293.44 3315.23,4293.82C3316.2,4294.19 3317.02,4294.7 3317.71,4295.35C3318.4,4296 3318.93,4296.74 3319.33,4297.59C3319.72,4298.44 3319.91,4299.35 3319.91,4300.32C3319.91,4301.18 3319.75,4301.92 3319.43,4302.54C3319.1,4303.16 3318.75,4303.65 3318.38,4304.03C3317.92,4304.49 3317.42,4304.87 3316.88,4305.16ZM3306.99,4303.35L3311.43,4303.35C3312.24,4303.35 3312.91,4303.08 3313.45,4302.56C3313.99,4302.03 3314.26,4301.42 3314.26,4300.72C3314.26,4300.02 3313.99,4299.41 3313.45,4298.88C3312.91,4298.36 3312.24,4298.1 3311.43,4298.1L3306.99,4298.1L3306.99,4303.35ZM3312.04,4313.84C3312.95,4313.84 3313.72,4313.54 3314.34,4312.93C3314.96,4312.33 3315.27,4311.62 3315.27,4310.81C3315.27,4310.01 3314.96,4309.3 3314.34,4308.69C3313.72,4308.09 3312.95,4307.79 3312.04,4307.79L3306.99,4307.79L3306.99,4313.84L3312.04,4313.84Z" style="fill:url(#_Linear7);fill-rule:nonzero;"/>
                <path d="M3329.8,4318.89C3328.7,4318.89 3327.69,4318.71 3326.78,4318.34C3325.86,4317.98 3325.07,4317.45 3324.41,4316.77C3323.75,4316.08 3323.24,4315.26 3322.88,4314.29C3322.51,4313.32 3322.33,4312.23 3322.33,4311.02L3322.33,4300.11L3327.78,4300.11L3327.78,4310.01C3327.78,4311.22 3328.1,4312.16 3328.73,4312.83C3329.37,4313.51 3330.19,4313.84 3331.22,4313.84C3332.24,4313.84 3333.07,4313.51 3333.7,4312.83C3334.33,4312.16 3334.65,4311.22 3334.65,4310.01L3334.65,4300.11L3340.1,4300.11L3340.1,4318.69L3336.06,4318.69L3335.25,4316.87C3334.8,4317.25 3334.28,4317.58 3333.72,4317.88C3333.23,4318.15 3332.66,4318.38 3332,4318.59C3331.34,4318.79 3330.61,4318.89 3329.8,4318.89Z" style="fill:url(#_Linear8);fill-rule:nonzero;"/>
                <path d="M3351.2,4299.71C3352.12,4299.71 3352.95,4299.81 3353.7,4300.01C3354.46,4300.22 3355.13,4300.49 3355.72,4300.84C3356.32,4301.19 3356.83,4301.58 3357.28,4302.01C3357.72,4302.44 3358.11,4302.89 3358.43,4303.35C3359.18,4304.42 3359.73,4305.63 3360.08,4306.98L3354.63,4307.38C3354.44,4306.9 3354.2,4306.47 3353.91,4306.09C3353.64,4305.77 3353.28,4305.46 3352.84,4305.18C3352.39,4304.9 3351.85,4304.76 3351.2,4304.76C3350.07,4304.76 3349.12,4305.18 3348.33,4306.01C3347.55,4306.84 3347.16,4307.97 3347.16,4309.4C3347.16,4310.83 3347.55,4311.96 3348.33,4312.79C3349.12,4313.63 3350.07,4314.04 3351.2,4314.04C3351.85,4314.04 3352.39,4313.91 3352.84,4313.64C3353.28,4313.37 3353.64,4313.07 3353.91,4312.75C3354.2,4312.38 3354.44,4311.93 3354.63,4311.42L3360.08,4311.82C3359.73,4313.17 3359.18,4314.38 3358.43,4315.46C3358.11,4315.91 3357.72,4316.36 3357.28,4316.79C3356.83,4317.22 3356.32,4317.61 3355.72,4317.96C3355.13,4318.31 3354.46,4318.59 3353.7,4318.79C3352.95,4318.99 3352.12,4319.09 3351.2,4319.09C3349.88,4319.09 3348.65,4318.84 3347.51,4318.34C3346.36,4317.85 3345.36,4317.16 3344.5,4316.28C3343.64,4315.41 3342.96,4314.39 3342.46,4313.22C3341.96,4312.05 3341.71,4310.77 3341.71,4309.4C3341.71,4308.03 3341.96,4306.76 3342.46,4305.59C3342.96,4304.41 3343.64,4303.39 3344.5,4302.52C3345.36,4301.64 3346.36,4300.96 3347.51,4300.46C3348.65,4299.96 3349.88,4299.71 3351.2,4299.71Z" style="fill:url(#_Linear9);fill-rule:nonzero;"/>
                <path d="M3372.6,4318.69L3366.95,4310.41L3366.95,4318.69L3361.5,4318.69L3361.5,4293.25L3366.95,4293.25L3366.95,4307.58L3371.99,4300.11L3378.25,4300.11L3371.99,4309L3378.86,4318.69L3372.6,4318.69Z" style="fill:url(#_Linear10);fill-rule:nonzero;"/>
                <path d="M3394.8,4313.24C3394.56,4313.99 3394.2,4314.72 3393.71,4315.42C3393.23,4316.12 3392.62,4316.74 3391.9,4317.29C3391.17,4317.85 3390.33,4318.28 3389.37,4318.61C3388.42,4318.93 3387.34,4319.09 3386.12,4319.09C3384.86,4319.09 3383.67,4318.84 3382.55,4318.34C3381.43,4317.85 3380.45,4317.16 3379.6,4316.28C3378.76,4315.41 3378.08,4314.39 3377.59,4313.22C3377.09,4312.05 3376.84,4310.77 3376.84,4309.4C3376.84,4308.03 3377.09,4306.76 3377.59,4305.59C3378.08,4304.41 3378.76,4303.39 3379.62,4302.52C3380.49,4301.64 3381.49,4300.96 3382.63,4300.46C3383.78,4299.96 3385.01,4299.71 3386.33,4299.71C3387.59,4299.71 3388.78,4299.94 3389.88,4300.4C3390.98,4300.86 3391.94,4301.51 3392.76,4302.36C3393.59,4303.2 3394.23,4304.23 3394.7,4305.42C3395.17,4306.62 3395.41,4307.95 3395.41,4309.4C3395.41,4309.62 3395.4,4309.82 3395.37,4310.03C3395.34,4310.23 3395.32,4310.42 3395.29,4310.61C3395.26,4310.83 3395.24,4311.03 3395.21,4311.22L3382.49,4311.22C3382.7,4311.92 3383.14,4312.56 3383.8,4313.16C3384.46,4313.75 3385.3,4314.04 3386.33,4314.04C3386.84,4314.04 3387.27,4313.98 3387.64,4313.86C3388,4313.74 3388.29,4313.6 3388.51,4313.44C3388.78,4313.28 3388.99,4313.07 3389.15,4312.83L3394.8,4313.24ZM3386.33,4304.76C3385.3,4304.76 3384.46,4305.06 3383.8,4305.67C3383.14,4306.27 3382.7,4306.98 3382.49,4307.79L3390.16,4307.79C3389.95,4306.98 3389.51,4306.27 3388.85,4305.67C3388.19,4305.06 3387.35,4304.76 3386.33,4304.76Z" style="fill:url(#_Linear11);fill-rule:nonzero;"/>
                <path d="M3398.84,4305.16L3396.01,4305.16L3396.01,4300.52L3397.43,4300.52C3398.91,4300.52 3399.65,4299.78 3399.65,4298.3L3399.65,4295.67L3404.29,4295.67L3404.29,4300.11L3408.13,4300.11L3408.13,4305.16L3404.29,4305.16L3404.29,4311.22C3404.29,4312.02 3404.52,4312.66 3404.98,4313.14C3405.44,4313.61 3406.01,4313.84 3406.71,4313.84C3406.93,4313.84 3407.12,4313.84 3407.28,4313.82C3407.44,4313.81 3407.59,4313.79 3407.72,4313.76C3407.86,4313.73 3407.99,4313.69 3408.13,4313.64L3408.13,4318.48C3407.91,4318.57 3407.67,4318.63 3407.4,4318.69C3406.86,4318.82 3406.23,4318.89 3405.5,4318.89C3403.38,4318.89 3401.74,4318.3 3400.58,4317.13C3399.42,4315.96 3398.84,4314.26 3398.84,4312.02L3398.84,4305.16Z" style="fill:url(#_Linear12);fill-rule:nonzero;"/>
                <path d="M3409.94,4293.25L3415.8,4293.25L3415.8,4313.03L3427.31,4313.03L3427.31,4318.69L3409.94,4318.69L3409.94,4293.25Z" style="fill:url(#_Linear13);fill-rule:nonzero;"/>
                <path d="M3437.4,4299.71C3438.5,4299.71 3439.52,4299.9 3440.47,4300.28C3441.41,4300.65 3442.22,4301.19 3442.91,4301.87C3443.6,4302.56 3444.13,4303.37 3444.5,4304.31C3444.88,4305.26 3445.07,4306.28 3445.07,4307.38L3445.07,4318.69L3441.03,4318.69L3440.22,4316.87C3439.77,4317.25 3439.26,4317.58 3438.69,4317.88C3438.21,4318.15 3437.63,4318.38 3436.97,4318.59C3436.32,4318.79 3435.58,4318.89 3434.77,4318.89C3432.76,4318.89 3431.21,4318.4 3430.13,4317.41C3429.05,4316.43 3428.52,4315.17 3428.52,4313.64C3428.52,4312.73 3428.7,4311.88 3429.06,4311.12C3429.42,4310.35 3430.04,4309.69 3430.9,4309.14C3431.76,4308.59 3432.9,4308.16 3434.31,4307.85C3435.72,4307.54 3437.49,4307.38 3439.62,4307.38C3439.62,4306.47 3439.39,4305.77 3438.93,4305.28C3438.47,4304.8 3437.9,4304.56 3437.2,4304.56C3436.68,4304.56 3436.27,4304.66 3435.97,4304.86C3435.66,4305.06 3435.41,4305.27 3435.22,4305.48C3435,4305.75 3434.86,4306.05 3434.77,4306.37L3429.32,4305.97C3429.49,4305.05 3429.77,4304.21 3430.17,4303.45C3430.58,4302.68 3431.11,4302.02 3431.77,4301.47C3432.43,4300.92 3433.23,4300.48 3434.17,4300.18C3435.11,4299.87 3436.19,4299.71 3437.4,4299.71ZM3436.19,4314.85C3437.21,4314.85 3438.04,4314.53 3438.67,4313.9C3439.3,4313.27 3439.62,4312.44 3439.62,4311.42L3439.62,4310.61C3438.46,4310.61 3437.51,4310.67 3436.77,4310.79C3436.03,4310.91 3435.45,4311.08 3435.04,4311.3C3434.62,4311.51 3434.34,4311.77 3434.19,4312.07C3434.04,4312.36 3433.97,4312.69 3433.97,4313.03C3433.97,4313.55 3434.16,4313.98 3434.55,4314.33C3434.94,4314.68 3435.49,4314.85 3436.19,4314.85Z" style="fill:url(#_Linear14);fill-rule:nonzero;"/>
                <path d="M3456.98,4318.89C3456.17,4318.89 3455.45,4318.79 3454.8,4318.59C3454.15,4318.38 3453.6,4318.15 3453.14,4317.88C3452.61,4317.58 3452.13,4317.25 3451.73,4316.87L3450.92,4318.69L3446.89,4318.69L3446.89,4293.25L3452.34,4293.25L3452.34,4301.53C3452.69,4301.23 3453.1,4300.96 3453.59,4300.72C3453.99,4300.51 3454.48,4300.32 3455.06,4300.15C3455.64,4299.99 3456.28,4299.91 3456.98,4299.91C3458.14,4299.91 3459.24,4300.15 3460.29,4300.62C3461.34,4301.09 3462.26,4301.75 3463.06,4302.6C3463.85,4303.45 3464.48,4304.45 3464.95,4305.61C3465.42,4306.76 3465.66,4308.03 3465.66,4309.4C3465.66,4310.77 3465.42,4312.04 3464.95,4313.2C3464.48,4314.35 3463.85,4315.36 3463.06,4316.2C3462.26,4317.05 3461.34,4317.71 3460.29,4318.18C3459.24,4318.65 3458.14,4318.89 3456.98,4318.89ZM3460.21,4309.4C3460.21,4308.08 3459.82,4307.01 3459.04,4306.19C3458.26,4305.37 3457.3,4304.96 3456.17,4304.96C3455.04,4304.96 3454.09,4305.37 3453.31,4306.19C3452.53,4307.01 3452.13,4308.08 3452.13,4309.4C3452.13,4310.72 3452.53,4311.79 3453.31,4312.61C3454.09,4313.43 3455.04,4313.84 3456.17,4313.84C3457.3,4313.84 3458.26,4313.43 3459.04,4312.61C3459.82,4311.79 3460.21,4310.72 3460.21,4309.4Z" style="fill:url(#_Linear15);fill-rule:nonzero;"/>
                <path d="M3472.12,4312.63C3472.23,4313.25 3472.48,4313.74 3472.89,4314.1C3473.29,4314.47 3473.84,4314.65 3474.54,4314.65C3475.24,4314.65 3475.79,4314.48 3476.18,4314.15C3476.57,4313.81 3476.76,4313.44 3476.76,4313.03C3476.76,4312.71 3476.53,4312.45 3476.06,4312.25C3475.59,4312.05 3475,4311.84 3474.3,4311.64C3473.6,4311.44 3472.84,4311.2 3472.02,4310.94C3471.2,4310.67 3470.44,4310.31 3469.74,4309.86C3469.04,4309.42 3468.45,4308.84 3467.98,4308.11C3467.51,4307.38 3467.28,4306.47 3467.28,4305.36C3467.28,4304.61 3467.44,4303.89 3467.76,4303.2C3468.08,4302.52 3468.55,4301.92 3469.15,4301.41C3469.76,4300.9 3470.5,4300.48 3471.37,4300.18C3472.25,4299.87 3473.24,4299.71 3474.34,4299.71C3476.76,4299.71 3478.61,4300.25 3479.87,4301.33C3481.14,4302.4 3481.92,4303.75 3482.21,4305.36L3476.96,4305.77C3476.86,4305.36 3476.61,4304.99 3476.24,4304.66C3475.86,4304.32 3475.36,4304.15 3474.74,4304.15C3474.12,4304.15 3473.67,4304.29 3473.37,4304.56C3473.08,4304.82 3472.93,4305.16 3472.93,4305.57C3472.93,4305.91 3473.16,4306.18 3473.63,4306.37C3474.1,4306.56 3474.69,4306.76 3475.39,4306.96C3476.09,4307.16 3476.85,4307.4 3477.67,4307.66C3478.49,4307.93 3479.25,4308.29 3479.95,4308.73C3480.65,4309.18 3481.24,4309.76 3481.71,4310.49C3482.18,4311.22 3482.41,4312.13 3482.41,4313.24C3482.41,4313.99 3482.25,4314.72 3481.91,4315.42C3481.57,4316.12 3481.08,4316.74 3480.44,4317.29C3479.79,4317.85 3479,4318.28 3478.07,4318.61C3477.15,4318.93 3476.1,4319.09 3474.95,4319.09C3472.41,4319.09 3470.51,4318.54 3469.23,4317.44C3467.95,4316.33 3467.17,4314.86 3466.87,4313.03L3472.12,4312.63Z" style="fill:url(#_Linear16);fill-rule:nonzero;"/>
            </g>
        </g>
    </g>
    <defs>
        <linearGradient id="_Linear1" x1="0" y1="0" x2="1" y2="0" gradientUnits="userSpaceOnUse" gradientTransform="matrix(72.7486,68.7528,-68.7528,72.7486,1210.35,2224.11)"><stop offset="0" style="stop-color:rgb(229,52,70);stop-opacity:1"/><stop offset="1" style="stop-color:rgb(205,17,42);stop-opacity:1"/></linearGradient>
        <linearGradient id="_Linear2" x1="0" y1="0" x2="1" y2="0" gradientUnits="userSpaceOnUse" gradientTransform="matrix(-1.30806e-13,456,-813.405,-7.33304e-14,30760,11281)"><stop offset="0" style="stop-color:rgb(67,173,233);stop-opacity:1"/><stop offset="1" style="stop-color:rgb(19,138,202);stop-opacity:1"/></linearGradient>
        <linearGradient id="_Linear3" x1="0" y1="0" x2="1" y2="0" gradientUnits="userSpaceOnUse" gradientTransform="matrix(2.85394e-14,466.084,-466.084,-6.97248e-15,30976.8,11270.9)"><stop offset="0" style="stop-color:rgb(251,228,14);stop-opacity:1"/><stop offset="1" style="stop-color:rgb(223,189,22);stop-opacity:1"/></linearGradient>
        <linearGradient id="_Linear4" x1="0" y1="0" x2="1" y2="0" gradientUnits="userSpaceOnUse" gradientTransform="matrix(474.141,448.098,-448.098,474.141,30734.9,11281)"><stop offset="0" style="stop-color:rgb(229,52,70);stop-opacity:1"/><stop offset="1" style="stop-color:rgb(205,17,42);stop-opacity:1"/></linearGradient>
        <linearGradient id="_Linear5" x1="0" y1="0" x2="1" y2="0" gradientUnits="userSpaceOnUse" gradientTransform="matrix(2.85394e-14,466.084,-466.084,-6.97248e-15,30976.8,11270.9)"><stop offset="0" style="stop-color:rgb(251,228,14);stop-opacity:1"/><stop offset="1" style="stop-color:rgb(223,189,22);stop-opacity:1"/></linearGradient>
        <linearGradient id="_Linear6" x1="0" y1="0" x2="1" y2="0" gradientUnits="userSpaceOnUse" gradientTransform="matrix(-1.30806e-13,456,-813.405,-7.33304e-14,30760,11281)"><stop offset="0" style="stop-color:rgb(67,173,233);stop-opacity:1"/><stop offset="1" style="stop-color:rgb(19,138,202);stop-opacity:1"/></linearGradient>
        <linearGradient id="_Linear7" x1="0" y1="0" x2="1" y2="0" gradientUnits="userSpaceOnUse" gradientTransform="matrix(-6.48171e-14,45.8333,-403.061,-7.37056e-15,3291.65,4286.6)"><stop offset="0" style="stop-color:rgb(67,173,233);stop-opacity:1"/><stop offset="1" style="stop-color:rgb(19,138,202);stop-opacity:1"/></linearGradient>
        <linearGradient id="_Linear8" x1="0" y1="0" x2="1" y2="0" gradientUnits="userSpaceOnUse" gradientTransform="matrix(-6.48171e-14,45.8333,-403.061,-7.37056e-15,3291.65,4286.6)"><stop offset="0" style="stop-color:rgb(67,173,233);stop-opacity:1"/><stop offset="1" style="stop-color:rgb(19,138,202);stop-opacity:1"/></linearGradient>
        <linearGradient id="_Linear9" x1="0" y1="0" x2="1" y2="0" gradientUnits="userSpaceOnUse" gradientTransform="matrix(-6.48171e-14,45.8333,-403.061,-7.37056e-15,3291.65,4286.6)"><stop offset="0" style="stop-color:rgb(67,173,233);stop-opacity:1"/><stop offset="1" style="stop-color:rgb(19,138,202);stop-opacity:1"/></linearGradient>
        <linearGradient id="_Linear10" x1="0" y1="0" x2="1" y2="0" gradientUnits="userSpaceOnUse" gradientTransform="matrix(-6.48171e-14,45.8333,-403.061,-7.37056e-15,3291.65,4286.6)"><stop offset="0" style="stop-color:rgb(67,173,233);stop-opacity:1"/><stop offset="1" style="stop-color:rgb(19,138,202);stop-opacity:1"/></linearGradient>
        <linearGradient id="_Linear11" x1="0" y1="0" x2="1" y2="0" gradientUnits="userSpaceOnUse" gradientTransform="matrix(-6.48171e-14,45.8333,-403.061,-7.37056e-15,3291.65,4286.6)"><stop offset="0" style="stop-color:rgb(67,173,233);stop-opacity:1"/><stop offset="1" style="stop-color:rgb(19,138,202);stop-opacity:1"/></linearGradient>
        <linearGradient id="_Linear12" x1="0" y1="0" x2="1" y2="0" gradientUnits="userSpaceOnUse" gradientTransform="matrix(-6.48171e-14,45.8333,-403.061,-7.37056e-15,3291.65,4286.6)"><stop offset="0" style="stop-color:rgb(67,173,233);stop-opacity:1"/><stop offset="1" style="stop-color:rgb(19,138,202);stop-opacity:1"/></linearGradient>
        <linearGradient id="_Linear13" x1="0" y1="0" x2="1" y2="0" gradientUnits="userSpaceOnUse" gradientTransform="matrix(-6.48171e-14,45.8333,-403.061,-7.37056e-15,3291.65,4286.6)"><stop offset="0" style="stop-color:rgb(67,173,233);stop-opacity:1"/><stop offset="1" style="stop-color:rgb(19,138,202);stop-opacity:1"/></linearGradient>
        <linearGradient id="_Linear14" x1="0" y1="0" x2="1" y2="0" gradientUnits="userSpaceOnUse" gradientTransform="matrix(-6.48171e-14,45.8333,-403.061,-7.37056e-15,3291.65,4286.6)"><stop offset="0" style="stop-color:rgb(67,173,233);stop-opacity:1"/><stop offset="1" style="stop-color:rgb(19,138,202);stop-opacity:1"/></linearGradient>
        <linearGradient id="_Linear15" x1="0" y1="0" x2="1" y2="0" gradientUnits="userSpaceOnUse" gradientTransform="matrix(-6.48171e-14,45.8333,-403.061,-7.37056e-15,3291.65,4286.6)"><stop offset="0" style="stop-color:rgb(67,173,233);stop-opacity:1"/><stop offset="1" style="stop-color:rgb(19,138,202);stop-opacity:1"/></linearGradient>
        <linearGradient id="_Linear16" x1="0" y1="0" x2="1" y2="0" gradientUnits="userSpaceOnUse" gradientTransform="matrix(-6.48171e-14,45.8333,-403.061,-7.37056e-15,3291.65,4286.6)"><stop offset="0" style="stop-color:rgb(67,173,233);stop-opacity:1"/><stop offset="1" style="stop-color:rgb(19,138,202);stop-opacity:1"/></linearGradient>
    </defs>
</svg>
