<?xml version="1.0" encoding="UTF-8" standalone="no"?>
<!DOCTYPE svg PUBLIC "-//W3C//DTD SVG 1.1//EN" "http://www.w3.org/Graphics/SVG/1.1/DTD/svg11.dtd">
<svg width="100%" height="100%" viewBox="0 0 1120 200" version="1.1" xmlns="http://www.w3.org/2000/svg" xmlns:xlink="http://www.w3.org/1999/xlink" xml:space="preserve" xmlns:serif="http://www.serif.com/" style="fill-rule:evenodd;clip-rule:evenodd;stroke-linejoin:round;stroke-miterlimit:1.41421;">
    <g transform="matrix(1,0,0,1,-18423,0)">
        <g id="Brand-1" serif:id="Brand 1" transform="matrix(0.319282,0,0,0.0806349,18423,0)">
            <rect x="0" y="0" width="3507.87" height="2480.32" style="fill:none;"/>
            <g transform="matrix(8.59499,0,0,34.0327,-10423.5,-75642.9)">
                <circle cx="1249.18" cy="2259.09" r="34.983" style="fill:white;"/>
            </g>
            <g transform="matrix(19.3941,0,0,76.7927,-63495.4,-329683)">
                <path d="M3327.75,4308.54C3328.32,4308.81 3328.82,4309.15 3329.26,4309.57C3329.65,4309.94 3330,4310.4 3330.31,4310.97C3330.62,4311.53 3330.78,4312.24 3330.78,4313.09C3330.78,4313.85 3330.63,4314.57 3330.32,4315.25C3330.02,4315.93 3329.59,4316.52 3329.04,4317.02C3328.48,4317.53 3327.83,4317.93 3327.07,4318.23C3326.31,4318.53 3325.48,4318.69 3324.57,4318.69L3315.94,4318.69L3315.94,4299.61L3324.12,4299.61C3324.99,4299.61 3325.78,4299.75 3326.51,4300.03C3327.24,4300.32 3327.86,4300.7 3328.37,4301.19C3328.89,4301.67 3329.29,4302.23 3329.58,4302.86C3329.88,4303.5 3330.02,4304.18 3330.02,4304.91C3330.02,4305.56 3329.9,4306.11 3329.66,4306.57C3329.42,4307.04 3329.15,4307.41 3328.87,4307.69C3328.53,4308.04 3328.15,4308.32 3327.75,4308.54ZM3320.33,4307.18L3323.66,4307.18C3324.27,4307.18 3324.77,4306.98 3325.18,4306.59C3325.58,4306.2 3325.78,4305.74 3325.78,4305.21C3325.78,4304.69 3325.58,4304.23 3325.18,4303.83C3324.77,4303.44 3324.27,4303.24 3323.66,4303.24L3320.33,4303.24L3320.33,4307.18ZM3324.12,4315.05C3324.8,4315.05 3325.38,4314.83 3325.84,4314.37C3326.31,4313.92 3326.54,4313.39 3326.54,4312.78C3326.54,4312.18 3326.31,4311.65 3325.84,4311.19C3325.38,4310.74 3324.8,4310.51 3324.12,4310.51L3320.33,4310.51L3320.33,4315.05L3324.12,4315.05Z" style="fill:white;fill-rule:nonzero;"/>
                <path d="M3337.44,4318.84C3336.61,4318.84 3335.86,4318.7 3335.17,4318.43C3334.48,4318.16 3333.89,4317.76 3333.4,4317.25C3332.9,4316.73 3332.52,4316.11 3332.25,4315.39C3331.97,4314.66 3331.84,4313.84 3331.84,4312.93L3331.84,4304.76L3335.93,4304.76L3335.93,4312.18C3335.93,4313.09 3336.16,4313.79 3336.64,4314.3C3337.11,4314.8 3337.73,4315.05 3338.5,4315.05C3339.27,4315.05 3339.89,4314.8 3340.36,4314.3C3340.84,4313.79 3341.07,4313.09 3341.07,4312.18L3341.07,4304.76L3345.16,4304.76L3345.16,4318.69L3342.13,4318.69L3341.53,4317.32C3341.18,4317.61 3340.8,4317.86 3340.38,4318.08C3340.01,4318.28 3339.59,4318.46 3339.09,4318.61C3338.6,4318.76 3338.05,4318.84 3337.44,4318.84Z" style="fill:white;fill-rule:nonzero;"/>
                <path d="M3353.49,4304.45C3354.18,4304.45 3354.8,4304.53 3355.37,4304.68C3355.93,4304.83 3356.44,4305.04 3356.88,4305.3C3357.32,4305.57 3357.71,4305.86 3358.05,4306.18C3358.38,4306.5 3358.67,4306.84 3358.91,4307.18C3359.47,4307.99 3359.89,4308.9 3360.15,4309.91L3356.06,4310.21C3355.92,4309.85 3355.74,4309.52 3355.52,4309.24C3355.32,4309 3355.05,4308.77 3354.72,4308.56C3354.38,4308.35 3353.97,4308.24 3353.49,4308.24C3352.64,4308.24 3351.92,4308.55 3351.34,4309.18C3350.75,4309.81 3350.46,4310.65 3350.46,4311.72C3350.46,4312.79 3350.75,4313.64 3351.34,4314.27C3351.92,4314.89 3352.64,4315.2 3353.49,4315.2C3353.97,4315.2 3354.38,4315.1 3354.72,4314.9C3355.05,4314.7 3355.32,4314.48 3355.52,4314.24C3355.74,4313.95 3355.92,4313.62 3356.06,4313.24L3360.15,4313.54C3359.89,4314.55 3359.47,4315.46 3358.91,4316.26C3358.67,4316.61 3358.38,4316.94 3358.05,4317.26C3357.71,4317.59 3357.32,4317.88 3356.88,4318.14C3356.44,4318.4 3355.93,4318.61 3355.37,4318.76C3354.8,4318.91 3354.18,4318.99 3353.49,4318.99C3352.5,4318.99 3351.58,4318.8 3350.72,4318.43C3349.86,4318.06 3349.11,4317.54 3348.46,4316.89C3347.82,4316.23 3347.31,4315.46 3346.93,4314.58C3346.56,4313.71 3346.37,4312.75 3346.37,4311.72C3346.37,4310.69 3346.56,4309.74 3346.93,4308.86C3347.31,4307.98 3347.82,4307.22 3348.46,4306.56C3349.11,4305.9 3349.86,4305.39 3350.72,4305.02C3351.58,4304.64 3352.5,4304.45 3353.49,4304.45Z" style="fill:white;fill-rule:nonzero;"/>
                <path d="M3369.54,4318.69L3365.3,4312.48L3365.3,4318.69L3361.21,4318.69L3361.21,4299.61L3365.3,4299.61L3365.3,4310.36L3369.08,4304.76L3373.78,4304.76L3369.08,4311.42L3374.23,4318.69L3369.54,4318.69Z" style="fill:white;fill-rule:nonzero;"/>
                <path d="M3386.19,4314.6C3386.01,4315.16 3385.74,4315.71 3385.37,4316.23C3385.01,4316.76 3384.56,4317.23 3384.01,4317.64C3383.47,4318.06 3382.84,4318.38 3382.12,4318.63C3381.4,4318.87 3380.59,4318.99 3379.68,4318.99C3378.73,4318.99 3377.84,4318.8 3377,4318.43C3376.16,4318.06 3375.43,4317.54 3374.79,4316.89C3374.16,4316.23 3373.65,4315.46 3373.28,4314.58C3372.9,4313.71 3372.72,4312.75 3372.72,4311.72C3372.72,4310.69 3372.9,4309.74 3373.28,4308.86C3373.65,4307.98 3374.16,4307.22 3374.81,4306.56C3375.45,4305.9 3376.2,4305.39 3377.06,4305.02C3377.92,4304.64 3378.84,4304.45 3379.83,4304.45C3380.78,4304.45 3381.67,4304.63 3382.5,4304.97C3383.33,4305.31 3384.05,4305.8 3384.66,4306.44C3385.28,4307.07 3385.76,4307.84 3386.12,4308.74C3386.47,4309.64 3386.64,4310.63 3386.64,4311.72C3386.64,4311.88 3386.64,4312.04 3386.62,4312.19C3386.6,4312.34 3386.58,4312.49 3386.55,4312.63C3386.53,4312.79 3386.51,4312.94 3386.49,4313.09L3376.96,4313.09C3377.12,4313.61 3377.45,4314.09 3377.94,4314.54C3378.43,4314.98 3379.07,4315.2 3379.83,4315.2C3380.22,4315.2 3380.54,4315.16 3380.82,4315.07C3381.09,4314.98 3381.31,4314.87 3381.47,4314.75C3381.67,4314.63 3381.83,4314.48 3381.95,4314.3L3386.19,4314.6ZM3379.83,4308.24C3379.07,4308.24 3378.43,4308.47 3377.94,4308.92C3377.45,4309.38 3377.12,4309.91 3376.96,4310.51L3382.71,4310.51C3382.55,4309.91 3382.22,4309.38 3381.72,4308.92C3381.23,4308.47 3380.6,4308.24 3379.83,4308.24Z" style="fill:white;fill-rule:nonzero;"/>
                <path d="M3389.22,4308.54L3387.1,4308.54L3387.1,4305.06L3388.16,4305.06C3389.27,4305.06 3389.83,4304.51 3389.83,4303.4L3389.83,4301.43L3393.31,4301.43L3393.31,4304.76L3396.18,4304.76L3396.18,4308.54L3393.31,4308.54L3393.31,4313.09C3393.31,4313.69 3393.48,4314.17 3393.82,4314.52C3394.16,4314.88 3394.6,4315.05 3395.12,4315.05C3395.28,4315.05 3395.43,4315.05 3395.55,4315.04C3395.67,4315.03 3395.78,4315.01 3395.88,4314.99C3395.98,4314.97 3396.08,4314.94 3396.18,4314.9L3396.18,4318.53C3396.02,4318.6 3395.84,4318.65 3395.64,4318.69C3395.24,4318.79 3394.76,4318.84 3394.22,4318.84C3392.62,4318.84 3391.39,4318.4 3390.52,4317.52C3389.65,4316.64 3389.22,4315.37 3389.22,4313.69L3389.22,4308.54Z" style="fill:white;fill-rule:nonzero;"/>
                <path d="M3397.55,4299.61L3401.94,4299.61L3401.94,4314.45L3410.57,4314.45L3410.57,4318.69L3397.55,4318.69L3397.55,4299.61Z" style="fill:white;fill-rule:nonzero;"/>
                <path d="M3418.14,4304.45C3418.96,4304.45 3419.73,4304.6 3420.44,4304.88C3421.14,4305.16 3421.76,4305.56 3422.27,4306.07C3422.78,4306.59 3423.18,4307.2 3423.47,4307.91C3423.75,4308.61 3423.89,4309.38 3423.89,4310.21L3423.89,4318.69L3420.86,4318.69L3420.26,4317.32C3419.91,4317.61 3419.53,4317.86 3419.11,4318.08C3418.74,4318.28 3418.31,4318.46 3417.82,4318.61C3417.32,4318.76 3416.77,4318.84 3416.17,4318.84C3414.65,4318.84 3413.49,4318.47 3412.69,4317.73C3411.88,4317 3411.47,4316.05 3411.47,4314.9C3411.47,4314.22 3411.61,4313.59 3411.88,4313.01C3412.16,4312.43 3412.62,4311.94 3413.26,4311.52C3413.91,4311.11 3414.76,4310.79 3415.82,4310.56C3416.88,4310.32 3418.21,4310.21 3419.8,4310.21C3419.8,4309.52 3419.63,4309 3419.29,4308.63C3418.94,4308.27 3418.51,4308.09 3417.99,4308.09C3417.6,4308.09 3417.29,4308.16 3417.06,4308.32C3416.83,4308.47 3416.64,4308.62 3416.5,4308.78C3416.34,4308.99 3416.23,4309.21 3416.17,4309.45L3412.08,4309.15C3412.2,4308.46 3412.41,4307.83 3412.72,4307.26C3413.02,4306.68 3413.42,4306.19 3413.91,4305.77C3414.41,4305.36 3415.01,4305.03 3415.71,4304.8C3416.42,4304.57 3417.23,4304.45 3418.14,4304.45ZM3417.23,4315.81C3417.99,4315.81 3418.62,4315.57 3419.09,4315.1C3419.57,4314.62 3419.8,4314 3419.8,4313.24L3419.8,4312.63C3418.93,4312.63 3418.22,4312.68 3417.67,4312.77C3417.11,4312.86 3416.68,4312.98 3416.37,4313.15C3416.05,4313.31 3415.84,4313.5 3415.73,4313.72C3415.62,4313.94 3415.56,4314.19 3415.56,4314.45C3415.56,4314.83 3415.71,4315.15 3416,4315.42C3416.3,4315.68 3416.7,4315.81 3417.23,4315.81Z" style="fill:white;fill-rule:nonzero;"/>
                <path d="M3432.82,4318.84C3432.22,4318.84 3431.67,4318.76 3431.19,4318.61C3430.7,4318.46 3430.29,4318.28 3429.95,4318.08C3429.54,4317.86 3429.19,4317.61 3428.89,4317.32L3428.28,4318.69L3425.25,4318.69L3425.25,4299.61L3429.34,4299.61L3429.34,4305.82C3429.6,4305.6 3429.92,4305.39 3430.28,4305.21C3430.58,4305.05 3430.95,4304.91 3431.38,4304.79C3431.82,4304.67 3432.3,4304.61 3432.82,4304.61C3433.69,4304.61 3434.52,4304.78 3435.31,4305.14C3436.09,4305.49 3436.78,4305.98 3437.38,4306.62C3437.97,4307.26 3438.45,4308.01 3438.8,4308.88C3439.16,4309.74 3439.33,4310.69 3439.33,4311.72C3439.33,4312.75 3439.16,4313.7 3438.8,4314.57C3438.45,4315.44 3437.97,4316.19 3437.38,4316.82C3436.78,4317.46 3436.09,4317.95 3435.31,4318.31C3434.52,4318.66 3433.69,4318.84 3432.82,4318.84ZM3435.24,4311.72C3435.24,4310.73 3434.95,4309.93 3434.37,4309.32C3433.78,4308.7 3433.07,4308.39 3432.22,4308.39C3431.37,4308.39 3430.65,4308.7 3430.07,4309.32C3429.48,4309.93 3429.19,4310.73 3429.19,4311.72C3429.19,4312.71 3429.48,4313.51 3430.07,4314.13C3430.65,4314.74 3431.37,4315.05 3432.22,4315.05C3433.07,4315.05 3433.78,4314.74 3434.37,4314.13C3434.95,4313.51 3435.24,4312.71 3435.24,4311.72Z" style="fill:white;fill-rule:nonzero;"/>
                <path d="M3444.18,4314.15C3444.26,4314.61 3444.45,4314.98 3444.75,4315.25C3445.06,4315.52 3445.47,4315.66 3445.99,4315.66C3446.52,4315.66 3446.93,4315.53 3447.22,4315.28C3447.51,4315.03 3447.66,4314.75 3447.66,4314.45C3447.66,4314.2 3447.48,4314.01 3447.13,4313.86C3446.78,4313.71 3446.34,4313.55 3445.81,4313.4C3445.29,4313.25 3444.72,4313.07 3444.1,4312.87C3443.49,4312.67 3442.92,4312.4 3442.39,4312.07C3441.87,4311.74 3441.43,4311.3 3441.07,4310.75C3440.72,4310.21 3440.54,4309.52 3440.54,4308.69C3440.54,4308.13 3440.66,4307.59 3440.91,4307.07C3441.15,4306.56 3441.5,4306.11 3441.95,4305.73C3442.41,4305.34 3442.96,4305.03 3443.62,4304.8C3444.27,4304.57 3445.01,4304.45 3445.84,4304.45C3447.66,4304.45 3449.04,4304.86 3449.99,4305.67C3450.94,4306.47 3451.53,4307.48 3451.75,4308.69L3447.81,4309C3447.73,4308.69 3447.55,4308.42 3447.27,4308.16C3446.98,4307.91 3446.61,4307.79 3446.15,4307.79C3445.68,4307.79 3445.34,4307.89 3445.12,4308.09C3444.89,4308.29 3444.78,4308.54 3444.78,4308.85C3444.78,4309.11 3444.96,4309.31 3445.31,4309.45C3445.67,4309.59 3446.11,4309.74 3446.63,4309.89C3447.16,4310.04 3447.72,4310.22 3448.34,4310.42C3448.96,4310.62 3449.53,4310.89 3450.05,4311.22C3450.58,4311.56 3451.02,4311.99 3451.37,4312.54C3451.72,4313.09 3451.9,4313.77 3451.9,4314.6C3451.9,4315.16 3451.77,4315.71 3451.52,4316.23C3451.27,4316.76 3450.9,4317.23 3450.41,4317.64C3449.93,4318.06 3449.34,4318.38 3448.64,4318.63C3447.95,4318.87 3447.16,4318.99 3446.3,4318.99C3444.4,4318.99 3442.97,4318.58 3442.01,4317.75C3441.05,4316.92 3440.46,4315.82 3440.24,4314.45L3444.18,4314.15Z" style="fill:white;fill-rule:nonzero;"/>
            </g>
        </g>
    </g>
</svg>
