<?xml version="1.0" encoding="UTF-8" standalone="no"?>
<!DOCTYPE svg PUBLIC "-//W3C//DTD SVG 1.1//EN" "http://www.w3.org/Graphics/SVG/1.1/DTD/svg11.dtd">
<svg width="100%" height="100%" viewBox="0 0 62 55" version="1.1" xmlns="http://www.w3.org/2000/svg" xmlns:xlink="http://www.w3.org/1999/xlink" xml:space="preserve" xmlns:serif="http://www.serif.com/" style="fill-rule:evenodd;clip-rule:evenodd;stroke-linejoin:round;stroke-miterlimit:1.41421;">
    <g transform="matrix(1,0,0,1,-7252.42,-1355.63)">
        <g transform="matrix(1,0,0,7.23333,7091,0)">
            <g transform="matrix(0.67955,0,0,0.0939471,158.21,186.469)">
                <path d="M56.62,27C59.06,27 61.037,29.066 61.037,31.506L63.539,53.824C63.539,56.262 61.562,58 59.123,58L57.746,58L54.347,87.01C54.347,88.494 53.14,90 51.655,90L47.787,90C46.301,90 45.095,88.494 45.095,87.01L41.698,58L40.321,58C37.882,58 35.904,56.157 35.904,53.719L38.405,31.626C38.405,29.186 40.383,27 42.821,27L56.62,27ZM25.438,27C27.877,27 29.855,29.066 29.854,31.506L32.356,53.824C32.356,56.262 30.379,58 27.94,58L26.563,58L23.165,87.01C23.165,88.494 21.958,90 20.472,90L16.605,90C15.119,90 13.913,88.494 13.913,87.01L10.515,58L9.138,58C6.699,58 4.722,56.156 4.722,53.719L7.222,31.626C7.222,29.186 9.2,27 11.639,27L25.438,27ZM87.803,27C90.242,27 92.22,29.186 92.22,31.626L94.722,53.719C94.722,56.156 92.745,58 90.306,58L88.929,58L85.529,87.01C85.529,88.494 84.322,90 82.836,90L78.97,90C77.484,90 76.278,88.494 76.278,87.01L72.881,58L71.503,58C69.065,58 67.087,56.157 67.087,53.719L69.587,31.626C69.587,29.186 71.566,27 74.005,27L87.803,27ZM80.903,10.059C84.989,10.059 88.307,13.377 88.307,17.463C88.307,21.549 84.989,24.867 80.903,24.867C76.817,24.867 73.499,21.549 73.499,17.463C73.499,13.377 76.817,10.059 80.903,10.059ZM18.539,10.059C22.625,10.059 25.943,13.377 25.943,17.463C25.943,21.549 22.625,24.867 18.539,24.867C14.453,24.867 11.135,21.549 11.135,17.463C11.135,13.377 14.453,10.059 18.539,10.059ZM49.722,10.059C53.808,10.059 57.126,13.377 57.126,17.463C57.126,21.549 53.808,24.867 49.722,24.867C45.636,24.867 42.318,21.549 42.318,17.463C42.318,13.377 45.636,10.059 49.722,10.059Z" style="fill:rgb(80,188,238);fill-rule:nonzero;"/>
            </g>
        </g>
    </g>
</svg>
