<?xml version="1.0" encoding="UTF-8" standalone="no"?><!DOCTYPE svg PUBLIC "-//W3C//DTD SVG 1.1//EN" "http://www.w3.org/Graphics/SVG/1.1/DTD/svg11.dtd"><svg width="100%" height="100%" viewBox="0 0 174 28" version="1.1" xmlns="http://www.w3.org/2000/svg" xmlns:xlink="http://www.w3.org/1999/xlink" xml:space="preserve" xmlns:serif="http://www.serif.com/" style="fill-rule:evenodd;clip-rule:evenodd;stroke-linejoin:round;stroke-miterlimit:1.41421;"><rect id="Artboard2" x="0" y="0" width="173.453" height="28" style="fill:none;"/><clipPath id="_clip1"><rect id="Artboard21" serif:id="Artboard2" x="0" y="0" width="173.453" height="28"/></clipPath><g clip-path="url(#_clip1)"><g><g><path d="M49.432,22.753c3.432,-0.432 5.52,-3.12 4.896,-7.416c-0.504,-3.768 -3.288,-6.144 -6.408,-6.144c-2.232,0 -3.528,1.368 -3.864,2.088l-1.128,-7.68l-2.928,0.168l1.944,13.896c0.264,1.872 1.56,3.672 3.528,4.584l-1.128,-8.328c0.288,-1.08 1.368,-2.28 2.808,-2.28c2.328,0 3.96,1.968 4.248,4.032c0.312,2.232 -0.48,3.96 -2.184,4.464l0.216,2.616Z" style="fill:#fff;fill-rule:nonzero;"/><path d="M62.584,22.825l-0.216,-2.64c-0.96,-0.192 -1.896,-0.936 -2.064,-2.256l-1.2,-8.424l-2.952,0l1.224,8.616c0.456,3.36 2.712,4.68 5.208,4.704Zm4.776,0.072l2.496,-1.056c-0.384,-0.576 -0.672,-1.536 -0.84,-2.712l-1.368,-9.624l-2.976,0l1.632,11.592c0.192,0.888 0.768,1.512 1.056,1.8Z" style="fill:#fff;fill-rule:nonzero;"/><path d="M78.136,11.785c1.464,0 2.76,0.48 3.48,1.08l0.6,-2.664c-1.152,-0.648 -2.688,-1.008 -4.296,-1.008l0.216,2.592Zm-6.6,4.392c0.504,3.552 3.576,6.648 8.064,6.648c2.16,0 3.504,-0.6 4.44,-1.32l-1.056,-2.448c-0.504,0.744 -1.776,1.2 -3.432,1.2c-2.856,0 -4.776,-2.112 -5.088,-4.344l-0.696,-5.448c-1.728,1.248 -2.544,3.384 -2.232,5.712Z" style="fill:#fff;fill-rule:nonzero;"/><path d="M86.872,22.489l2.976,0l-0.648,-4.56l1.272,-1.584l0.792,0.96l3.528,0l-2.496,-3.096l3.864,-4.704l-3.504,0l-3.936,4.728l-1.56,-10.944l-2.904,0.48l2.616,18.72Z" style="fill:#fff;fill-rule:nonzero;"/><path d="M104.392,9.241l0.192,2.472c1.536,0.312 2.736,1.488 2.952,3.12l-2.448,-0.096l0.312,2.256l5.016,-0.072c0.072,-0.336 0.096,-1.104 0.024,-1.752c-0.408,-2.88 -2.424,-5.544 -6.048,-5.928Zm-6.528,7.056c0.552,3.984 3.6,6.528 7.8,6.528c2.496,0 4.44,-0.624 5.4,-1.464l-0.912,-2.256c-0.864,0.768 -2.52,1.152 -4.344,1.152c-2.184,0 -4.344,-1.224 -4.728,-3.36l-0.888,-6.792c-1.872,1.2 -2.712,3.528 -2.328,6.192Z" style="fill:#fff;fill-rule:nonzero;"/><path d="M111.904,12.001l8.328,0l-0.36,-2.496l-3.312,0l-0.552,-3.96l-2.952,0.168l0.528,3.792l-2.04,0l0.36,2.496Zm7.608,10.824c1.44,0 2.448,-0.528 2.952,-1.128l-0.96,-2.184c-0.36,0.408 -0.888,0.6 -1.632,0.6c-1.032,0 -1.92,-0.768 -2.112,-2.064l-0.096,-0.744l-2.976,0l0.12,0.936c0.48,3.264 2.136,4.584 4.704,4.584Z" style="fill:#fff;fill-rule:nonzero;"/><path d="M125.008,22.489l2.976,0l-2.64,-18.888l-2.952,0.168l2.616,18.72Z" style="fill:#fff;fill-rule:nonzero;"/><path d="M136.96,22.777l-0.192,-2.424c-2.064,-0.264 -3.816,-2.232 -4.152,-4.56c-0.36,-2.52 1.056,-4.224 3.216,-4.224c1.848,0 3.192,1.128 3.792,2.16l1.032,7.296c0.48,1.32 1.896,1.752 2.76,1.752c1.344,0 2.16,-0.576 2.448,-1.224l-0.912,-1.464c-0.072,0.144 -0.264,0.192 -0.48,0.192c-0.696,0 -1.032,-0.672 -1.2,-1.752l-1.296,-9.024l-2.88,0l0.216,1.56c-0.504,-0.72 -1.944,-1.872 -3.912,-1.872c-3.72,0 -6.216,2.952 -5.664,6.888c0.504,3.648 3.624,6.6 7.224,6.696Z" style="fill:#fff;fill-rule:nonzero;"/><path d="M154.768,22.753c3.432,-0.432 5.52,-3.12 4.896,-7.416c-0.504,-3.768 -3.288,-6.144 -6.408,-6.144c-2.232,0 -3.528,1.368 -3.864,2.088l-1.128,-7.68l-2.928,0.168l1.944,13.896c0.264,1.872 1.56,3.672 3.528,4.584l-1.128,-8.328c0.288,-1.08 1.368,-2.28 2.808,-2.28c2.328,0 3.96,1.968 4.248,4.032c0.312,2.232 -0.48,3.96 -2.184,4.464l0.216,2.616Z" style="fill:#fff;fill-rule:nonzero;"/><path d="M164.92,16.609l-0.432,-3.6c-0.12,-0.864 1.008,-1.416 2.544,-1.416c1.896,0 3.624,0.936 4.008,1.44l0.48,-2.376c-0.312,-0.312 -1.968,-1.464 -4.512,-1.464c-3.24,0 -5.808,1.632 -5.448,4.224c0.264,1.824 1.632,2.688 3.36,3.192Zm6.072,5.784c1.824,-0.624 2.712,-2.016 2.4,-4.152c-0.288,-2.088 -1.848,-2.856 -4.704,-3.48l0.24,2.76c0.912,0.288 1.56,0.744 1.632,1.32l0.432,3.552Zm-3.84,0.408l-0.192,-2.52c-1.944,-0.192 -3.672,-1.104 -4.248,-1.704l-0.072,2.856c0.6,0.408 2.064,1.224 4.512,1.368Z" style="fill:#fff;fill-rule:nonzero;"/></g><circle cx="14" cy="14" r="14" style="fill:#fff;"/></g></g></svg>