<svg xmlns="http://www.w3.org/2000/svg" width="64" height="64" viewBox="0 0 64 64">
  <defs>
    <linearGradient id="icon-datalab-1-a" x1="47.394%" x2="76.968%" y1="14.871%" y2="68.851%">
      <stop offset="0%" stop-color="#AFDD81"/>
      <stop offset="100%" stop-color="#77B84A"/>
    </linearGradient>
  </defs>
  <g fill="none" fill-rule="evenodd" transform="translate(9)">
    <path fill="url(#icon-datalab-1-a)" d="M3.31671843,18.0293658 L37.1005022,1.13747389 C38.7896672,0.292891415 40.7779004,0.292891415 42.4670654,1.13747389 L44.4915571,2.14971975 C45.8466932,2.82728781 46.7027027,4.21234028 46.7027027,5.72742851 L46.7027027,39.3308724 C46.7027027,41.6035048 45.4186884,43.6810835 43.3859843,44.6974356 L6.97804357,62.9014059 C5.85193361,63.4644609 4.52644477,63.4644609 3.40033481,62.9014059 L2.21114562,62.3068113 C0.856009505,61.6292433 -5.14352572e-15,60.2441908 -5.32907052e-15,58.7291026 L-3.55271368e-15,23.3959289 C-2.82177937e-15,21.1232966 1.28401426,19.0457179 3.31671843,18.0293658 Z"/>
    <path fill="#77B84A" d="M7.95312121,20.9003536 L42.3610619,3.69638322 C43.8429974,2.95541548 45.6450165,3.55608852 46.3859843,5.03802401 C46.5942674,5.45459031 46.7027027,5.91392951 46.7027027,6.3796648 L46.7027027,37.8498872 L5.18918919,58.6066439 L5.18918919,25.3724895 C5.18918919,23.4786292 6.25920107,21.7473136 7.95312121,20.9003536 Z M10.3070079,24.9125994 C9.29065578,25.4207755 8.64864865,26.4595648 8.64864865,27.595881 L8.64864865,51.7994207 C8.64864865,51.9546658 8.68479374,52.1077789 8.75422146,52.2466343 C9.00121071,52.7406128 9.60188375,52.9408372 10.0958622,52.6938479 L42.1376704,36.6729438 C42.8152385,36.3341598 43.2432432,35.6416336 43.2432432,34.8840894 L43.2432432,10.0625157 C43.2432432,9.90727064 43.2070982,9.75415758 43.1376704,9.61530214 C42.8906812,9.12132365 42.2900081,8.9210993 41.7960296,9.16808855 L10.3070079,24.9125994 Z"/>
  </g>
</svg>
