<svg xmlns="http://www.w3.org/2000/svg" width="64" height="64" viewBox="0 0 64 64">
  <defs>
    <linearGradient id="icon-cities-4-a" x1="100%" x2="-6.905%" y1="55.05%" y2="50.812%">
      <stop offset="0%" stop-color="#88DFF8"/>
      <stop offset="100%" stop-color="#50BCEE"/>
    </linearGradient>
    <linearGradient id="icon-cities-4-b" x1="50%" x2="41.571%" y1="43.871%" y2="100%">
      <stop offset="0%" stop-color="#88DFF8"/>
      <stop offset="100%" stop-color="#50BCEE"/>
    </linearGradient>
    <linearGradient id="icon-cities-4-c" x1="37.776%" x2="67.81%" y1="30.841%" y2="67.486%">
      <stop offset="0%" stop-color="#88DFF8"/>
      <stop offset="100%" stop-color="#50BCEE"/>
    </linearGradient>
  </defs>
  <g fill="none" fill-rule="evenodd">
    <path fill="#EBEBEB" d="M28.0001113,58.4 L32,56.4 L11,44 L7,46 C10.5358682,48.5449966 13.5358682,50.5449966 16,52 C18.4641318,53.4550034 22.4641689,55.5883368 28.0001113,58.4 Z"/>
    <g transform="translate(10 8)">
      <path fill="url(#icon-cities-4-a)" d="M21.999804,23.76 L43.12,11.44 C39.137241,8.77451504 35.9105743,6.72118171 33.44,5.28 C30.9694257,3.83881829 27.1560924,2.07881829 22,-1.24344979e-14 C16.7562983,2.12995001 12.942965,3.88995001 10.56,5.28 C8.17703505,6.67004999 4.95036838,8.72338332 0.88,11.44 L21.999804,23.76 Z"/>
      <path fill="url(#icon-cities-4-b)" d="M22,23.76 L43.12,11.44 C43.7066667,15.5466667 44,19.6533333 44,23.76 C44,27.8666667 43.7066667,31.9733333 43.12,36.08 C40.872049,37.904632 37.7920438,39.9579653 33.8799844,42.24 C29.9679249,44.5220347 26.0079301,46.575368 22,48.4 C22.5866667,43.4178686 22.88,39.0178686 22.88,35.2 C22.88,31.3821314 22.5866667,27.5687981 22,23.76 Z"/>
      <path fill="url(#icon-cities-4-c)" d="M0.88,23.76 L22,11.44 C22.5866667,15.5466667 22.88,19.6533333 22.88,23.76 C22.88,27.8666667 22.5866667,31.9733333 22,36.08 C18.7225837,38.6761837 15.7891759,40.7295171 13.1997766,42.24 C10.6103773,43.7504829 6.50378511,45.8038163 0.88,48.4 C0.293333333,43.7066667 3.65448412e-15,39.3066667 3.55271368e-15,35.2 C3.55271368e-15,31.0933333 0.293333333,27.28 0.88,23.76 Z" transform="matrix(-1 0 0 1 22.88 0)"/>
    </g>
  </g>
</svg>
