<svg xmlns="http://www.w3.org/2000/svg" width="64" height="65" viewBox="0 0 64 65">
  <defs>
    <linearGradient id="icon-challenge-4-a" x1="28.424%" x2="50%" y1="40.258%" y2="67.014%">
      <stop offset="0%" stop-color="#F3929A"/>
      <stop offset="100%" stop-color="#EC4C57"/>
    </linearGradient>
    <linearGradient id="icon-challenge-4-b" x1="42.955%" x2="50%" y1="21.371%" y2="100%">
      <stop offset="0%" stop-color="#F3929A"/>
      <stop offset="100%" stop-color="#EC4C57"/>
    </linearGradient>
    <linearGradient id="icon-challenge-4-c" x1="68.388%" x2="35.356%" y1="50%" y2="87.063%">
      <stop offset="0%" stop-color="#F3929A"/>
      <stop offset="100%" stop-color="#EC4C57"/>
    </linearGradient>
    <linearGradient id="icon-challenge-4-d" x1="50%" x2="50%" y1="100%" y2="0%">
      <stop offset="0%" stop-color="#F3929A"/>
      <stop offset="100%" stop-color="#EC4C57"/>
    </linearGradient>
  </defs>
  <g fill="none" fill-rule="evenodd" transform="translate(0 1)">
    <g opacity=".7" transform="translate(20 7)">
      <polygon fill="url(#icon-challenge-4-a)" points="12 14 24 7 12 0 0 7"/>
      <polygon fill="url(#icon-challenge-4-b)" points="12 14 24 7 24 21 12 28"/>
      <polygon fill="url(#icon-challenge-4-c)" points="0 14 12 7 12 21 0 28" transform="matrix(-1 0 0 1 12 0)"/>
      <polygon fill="url(#icon-challenge-4-d)" fill-opacity=".4" points="12 28 24 21 12 14 0 21" opacity=".3"/>
    </g>
    <polygon fill="#EBEBEB" points="47 46 49 45 37 38 35 39"/>
    <polygon fill="#EBEBEB" points="31 56 33 55 21 48 19 49"/>
    <polygon fill="#EBEBEB" points="14 46 16 45 4 38 2 39"/>
    <g opacity=".9" transform="translate(4 17)">
      <polygon fill="url(#icon-challenge-4-a)" points="12 14 24 7 12 0 0 7"/>
      <polygon fill="url(#icon-challenge-4-b)" points="12 14 24 7 24 21 12 28"/>
      <polygon fill="url(#icon-challenge-4-c)" points="0 14 12 7 12 21 0 28" transform="matrix(-1 0 0 1 12 0)"/>
      <polygon fill="url(#icon-challenge-4-d)" fill-opacity=".4" points="12 28 24 21 12 14 0 21" opacity=".3"/>
    </g>
    <g opacity=".8" transform="translate(37 17)">
      <polygon fill="url(#icon-challenge-4-a)" points="12 14 24 7 12 0 0 7"/>
      <polygon fill="url(#icon-challenge-4-b)" points="12 14 24 7 24 21 12 28"/>
      <polygon fill="url(#icon-challenge-4-c)" points="0 14 12 7 12 21 0 28" transform="matrix(-1 0 0 1 12 0)"/>
      <polygon fill="url(#icon-challenge-4-d)" fill-opacity=".4" points="12 28 24 21 12 14 0 21" opacity=".3"/>
    </g>
    <g transform="translate(21 27)">
      <polygon fill="url(#icon-challenge-4-a)" points="12 14 24 7 12 0 0 7"/>
      <polygon fill="url(#icon-challenge-4-b)" points="12 14 24 7 24 21 12 28"/>
      <polygon fill="url(#icon-challenge-4-c)" points="0 14 12 7 12 21 0 28" transform="matrix(-1 0 0 1 12 0)"/>
      <polygon fill="url(#icon-challenge-4-d)" fill-opacity=".4" points="12 28 24 21 12 14 0 21" opacity=".3"/>
    </g>
  </g>
</svg>
