<?xml version="1.0" encoding="UTF-8" standalone="no"?><!DOCTYPE svg PUBLIC "-//W3C//DTD SVG 1.1//EN" "http://www.w3.org/Graphics/SVG/1.1/DTD/svg11.dtd"><svg width="100%" height="100%" viewBox="0 0 270 47" version="1.1" xmlns="http://www.w3.org/2000/svg" xmlns:xlink="http://www.w3.org/1999/xlink" xml:space="preserve" xmlns:serif="http://www.serif.com/" style="fill-rule:evenodd;clip-rule:evenodd;stroke-linejoin:round;stroke-miterlimit:1.41421;"><rect id="Brand-1" serif:id="Brand 1" x="0.007" y="0" width="268.8" height="46.08" style="fill:none;"/><clipPath id="_clip1"><rect x="0.007" y="0" width="268.8" height="46.08"/></clipPath><g clip-path="url(#_clip1)"><g><g><path d="M82.045,22.697c0.799,0.37 1.511,0.855 2.139,1.454c0.541,0.513 1.033,1.197 1.475,2.053c0.442,0.855 0.663,1.896 0.663,3.122c0,1.026 -0.214,2.003 -0.641,2.929c-0.428,0.927 -1.034,1.739 -1.818,2.438c-0.784,0.699 -1.711,1.262 -2.78,1.689c-1.069,0.428 -2.245,0.642 -3.528,0.642l-11.548,0l0,-26.944l11.12,0c1.169,0 2.252,0.2 3.25,0.599c0.998,0.399 1.861,0.941 2.588,1.625c0.727,0.684 1.29,1.475 1.689,2.374c0.399,0.898 0.599,1.86 0.599,2.886c0,0.913 -0.171,1.697 -0.513,2.353c-0.342,0.655 -0.713,1.183 -1.112,1.582c-0.485,0.485 -1.012,0.884 -1.583,1.198Zm-10.906,-1.711l5.56,0c0.97,0 1.782,-0.321 2.438,-0.962c0.656,-0.642 0.984,-1.39 0.984,-2.246c0,-0.855 -0.328,-1.604 -0.984,-2.245c-0.656,-0.642 -1.468,-0.962 -2.438,-0.962l-5.56,0l0,6.415Zm5.988,11.547c1.197,0 2.174,-0.37 2.93,-1.112c0.755,-0.741 1.133,-1.653 1.133,-2.737c0,-1.083 -0.378,-1.996 -1.133,-2.737c-0.756,-0.741 -1.733,-1.112 -2.93,-1.112l-5.988,0l0,7.698l5.988,0Z" style="fill:url(#_Linear2);fill-rule:nonzero;"/><path d="M97.869,37.238c-1.169,0 -2.238,-0.193 -3.207,-0.578c-0.97,-0.385 -1.804,-0.941 -2.502,-1.668c-0.699,-0.727 -1.24,-1.603 -1.625,-2.63c-0.385,-1.026 -0.578,-2.181 -0.578,-3.464l0,-11.547l4.919,0l0,10.905c0,1.283 0.377,2.317 1.133,3.101c0.756,0.784 1.732,1.176 2.93,1.176c1.197,0 2.174,-0.392 2.929,-1.176c0.756,-0.784 1.134,-1.818 1.134,-3.101l0,-10.905l4.918,0l0,19.673l-3.635,0l-0.856,-1.925c-0.484,0.399 -1.012,0.756 -1.582,1.069c-0.485,0.286 -1.069,0.535 -1.754,0.749c-0.684,0.214 -1.425,0.321 -2.224,0.321Z" style="fill:url(#_Linear3);fill-rule:nonzero;"/><path d="M130.587,29.753c-0.228,0.97 -0.613,1.903 -1.155,2.802c-0.541,0.898 -1.212,1.696 -2.01,2.395c-0.798,0.698 -1.711,1.254 -2.737,1.668c-1.026,0.413 -2.124,0.62 -3.293,0.62c-1.34,0 -2.602,-0.264 -3.785,-0.792c-1.183,-0.527 -2.224,-1.247 -3.122,-2.159c-0.898,-0.913 -1.611,-1.975 -2.139,-3.187c-0.527,-1.211 -0.791,-2.516 -0.791,-3.913c0,-1.397 0.264,-2.701 0.791,-3.913c0.528,-1.212 1.241,-2.274 2.139,-3.186c0.898,-0.913 1.939,-1.633 3.122,-2.16c1.183,-0.528 2.445,-0.791 3.785,-0.791c1.169,0 2.267,0.206 3.293,0.62c1.026,0.413 1.939,0.969 2.737,1.668c0.798,0.698 1.469,1.497 2.01,2.395c0.542,0.898 0.927,1.832 1.155,2.801l-4.918,0c-0.228,-0.513 -0.542,-0.969 -0.941,-1.368c-0.342,-0.343 -0.784,-0.663 -1.326,-0.963c-0.542,-0.299 -1.212,-0.449 -2.01,-0.449c-1.397,0 -2.566,0.485 -3.507,1.454c-0.941,0.97 -1.411,2.267 -1.411,3.892c0,1.625 0.47,2.923 1.411,3.892c0.941,0.969 2.11,1.454 3.507,1.454c0.798,0 1.468,-0.142 2.01,-0.427c0.542,-0.286 0.984,-0.599 1.326,-0.941c0.399,-0.4 0.713,-0.87 0.941,-1.412l4.918,0Z" style="fill:url(#_Linear4);fill-rule:nonzero;"/><path d="M145.77,37.024l-6.843,-8.981l0,8.981l-4.919,0l0,-26.944l4.919,0l0,15.396l5.987,-8.125l5.56,0l-7.057,9.409l7.912,10.264l-5.559,0Z" style="fill:url(#_Linear5);fill-rule:nonzero;"/><path d="M170.361,31.036c-0.256,0.742 -0.648,1.483 -1.176,2.224c-0.527,0.742 -1.169,1.404 -1.924,1.989c-0.756,0.584 -1.611,1.062 -2.567,1.433c-0.955,0.37 -1.988,0.556 -3.1,0.556c-1.34,0 -2.602,-0.264 -3.785,-0.792c-1.183,-0.527 -2.224,-1.247 -3.122,-2.159c-0.898,-0.913 -1.611,-1.975 -2.139,-3.187c-0.527,-1.211 -0.791,-2.516 -0.791,-3.913c0,-1.397 0.264,-2.701 0.791,-3.913c0.528,-1.212 1.241,-2.274 2.139,-3.186c0.898,-0.913 1.939,-1.633 3.122,-2.16c1.183,-0.528 2.445,-0.791 3.785,-0.791c1.283,0 2.495,0.242 3.635,0.727c1.141,0.484 2.138,1.169 2.994,2.053c0.855,0.884 1.532,1.946 2.031,3.186c0.499,1.24 0.749,2.602 0.749,4.084c0,0.228 -0.015,0.449 -0.043,0.663c-0.029,0.214 -0.057,0.421 -0.086,0.62c-0.028,0.228 -0.057,0.442 -0.085,0.642l-13.686,0c0.228,0.969 0.713,1.782 1.454,2.438c0.742,0.655 1.754,0.983 3.037,0.983c0.656,0 1.204,-0.071 1.646,-0.214c0.442,-0.142 0.82,-0.313 1.134,-0.513c0.342,-0.228 0.627,-0.485 0.855,-0.77l5.132,0Zm-8.767,-9.195c-1.283,0 -2.331,0.371 -3.144,1.112c-0.812,0.741 -1.333,1.654 -1.561,2.737l9.409,0c-0.228,-1.083 -0.748,-1.996 -1.561,-2.737c-0.812,-0.741 -1.86,-1.112 -3.143,-1.112Z" style="fill:url(#_Linear6);fill-rule:nonzero;"/><path d="M176.776,12.646l4.277,0l0,4.705l4.277,0l0,4.49l-4.277,0l0,8.126c0,0.855 0.25,1.533 0.749,2.032c0.499,0.499 1.176,0.748 2.031,0.748c0.228,0 0.414,-0.007 0.556,-0.021c0.143,-0.015 0.271,-0.036 0.385,-0.064c0.114,-0.029 0.228,-0.072 0.342,-0.129l0,4.277c-0.199,0.086 -0.427,0.157 -0.684,0.214c-0.485,0.142 -1.041,0.214 -1.668,0.214c-0.969,0 -1.86,-0.164 -2.673,-0.492c-0.813,-0.328 -1.511,-0.806 -2.096,-1.433c-0.584,-0.627 -1.04,-1.368 -1.368,-2.224c-0.328,-0.855 -0.492,-1.825 -0.492,-2.908l0,-8.34l-2.994,0l0,-4.063l1.283,0c1.568,0 2.352,-0.784 2.352,-2.352l0,-2.78Z" style="fill:url(#_Linear7);fill-rule:nonzero;"/><path d="M207.569,32.106l0,4.918l-17.748,0l0,-26.944l5.132,0l0,22.026l12.616,0Z" style="fill:url(#_Linear8);fill-rule:nonzero;"/><path d="M218.261,17.137c1.112,0 2.139,0.192 3.08,0.577c0.941,0.385 1.753,0.92 2.437,1.604c0.685,0.684 1.219,1.497 1.604,2.438c0.385,0.941 0.578,1.967 0.578,3.079l0,12.189l-3.636,0l-0.855,-1.925c-0.456,0.399 -0.955,0.756 -1.497,1.069c-0.485,0.286 -1.069,0.535 -1.753,0.749c-0.685,0.214 -1.454,0.321 -2.31,0.321c-2.138,0 -3.778,-0.521 -4.918,-1.561c-1.141,-1.041 -1.711,-2.374 -1.711,-3.999c0,-0.97 0.193,-1.861 0.577,-2.673c0.385,-0.813 1.034,-1.511 1.946,-2.096c0.913,-0.584 2.117,-1.04 3.614,-1.368c1.497,-0.328 3.372,-0.492 5.624,-0.492c0,-1.084 -0.292,-1.925 -0.876,-2.524c-0.585,-0.598 -1.362,-0.898 -2.331,-0.898c-0.656,0 -1.176,0.114 -1.561,0.343c-0.385,0.228 -0.692,0.47 -0.92,0.727c-0.256,0.313 -0.428,0.67 -0.513,1.069l-4.918,0c0.114,-0.913 0.377,-1.768 0.791,-2.566c0.413,-0.799 0.976,-1.497 1.689,-2.096c0.713,-0.599 1.561,-1.076 2.545,-1.433c0.984,-0.356 2.088,-0.534 3.314,-0.534Zm-1.496,16.252c1.283,0 2.316,-0.378 3.1,-1.134c0.784,-0.755 1.176,-1.732 1.176,-2.929l0,-0.856c-1.454,0 -2.623,0.064 -3.507,0.193c-0.884,0.128 -1.575,0.313 -2.074,0.556c-0.499,0.242 -0.834,0.534 -1.005,0.876c-0.171,0.343 -0.257,0.727 -0.257,1.155c0,0.542 0.243,1.034 0.727,1.476c0.485,0.442 1.098,0.663 1.84,0.663Z" style="fill:url(#_Linear9);fill-rule:nonzero;"/><path d="M240.501,37.238c-0.856,0 -1.625,-0.107 -2.31,-0.321c-0.684,-0.214 -1.269,-0.463 -1.753,-0.749c-0.57,-0.313 -1.069,-0.67 -1.497,-1.069l-0.855,1.925l-3.636,0l0,-26.944l4.919,0l0,8.981c0.399,-0.342 0.855,-0.655 1.368,-0.941c0.456,-0.228 0.991,-0.449 1.604,-0.663c0.613,-0.213 1.333,-0.32 2.16,-0.32c1.226,0 2.395,0.249 3.507,0.748c1.112,0.499 2.088,1.198 2.929,2.096c0.841,0.898 1.511,1.96 2.01,3.186c0.499,1.226 0.749,2.566 0.749,4.02c0,1.454 -0.25,2.794 -0.749,4.02c-0.499,1.226 -1.169,2.288 -2.01,3.187c-0.841,0.898 -1.817,1.596 -2.929,2.095c-1.112,0.499 -2.281,0.749 -3.507,0.749Zm-5.56,-10.051c0,1.625 0.47,2.923 1.411,3.892c0.941,0.969 2.11,1.454 3.507,1.454c1.397,0 2.566,-0.485 3.507,-1.454c0.941,-0.969 1.412,-2.267 1.412,-3.892c0,-1.625 -0.471,-2.922 -1.412,-3.892c-0.941,-0.969 -2.11,-1.454 -3.507,-1.454c-1.397,0 -2.566,0.485 -3.507,1.454c-0.941,0.97 -1.411,2.267 -1.411,3.892Z" style="fill:url(#_Linear10);fill-rule:nonzero;"/><path d="M256.966,30.822c0.114,0.656 0.428,1.212 0.941,1.668c0.514,0.457 1.198,0.685 2.053,0.685c0.856,0 1.533,-0.221 2.032,-0.663c0.499,-0.442 0.748,-0.934 0.748,-1.476c0,-0.456 -0.249,-0.812 -0.748,-1.069c-0.499,-0.256 -1.119,-0.492 -1.861,-0.706c-0.741,-0.213 -1.547,-0.434 -2.416,-0.662c-0.87,-0.229 -1.675,-0.564 -2.417,-1.006c-0.741,-0.441 -1.361,-1.012 -1.86,-1.71c-0.499,-0.699 -0.748,-1.618 -0.748,-2.759c0,-0.798 0.164,-1.561 0.491,-2.288c0.328,-0.727 0.806,-1.361 1.433,-1.903c0.627,-0.542 1.369,-0.977 2.224,-1.304c0.855,-0.328 1.825,-0.492 2.908,-0.492c2.367,0 4.184,0.57 5.453,1.71c1.269,1.141 2.017,2.567 2.246,4.277l-4.705,0c-0.114,-0.427 -0.42,-0.855 -0.919,-1.283c-0.499,-0.427 -1.12,-0.641 -1.861,-0.641c-0.741,0 -1.318,0.185 -1.732,0.556c-0.413,0.37 -0.62,0.827 -0.62,1.368c0,0.456 0.249,0.813 0.748,1.069c0.499,0.257 1.119,0.492 1.861,0.706c0.741,0.214 1.547,0.442 2.416,0.684c0.87,0.243 1.675,0.592 2.417,1.048c0.741,0.456 1.361,1.048 1.86,1.775c0.499,0.727 0.748,1.675 0.748,2.844c0,0.798 -0.171,1.561 -0.513,2.288c-0.342,0.727 -0.827,1.362 -1.454,1.903c-0.627,0.542 -1.39,0.977 -2.288,1.305c-0.898,0.328 -1.903,0.492 -3.015,0.492c-2.566,0 -4.512,-0.585 -5.838,-1.754c-1.326,-1.169 -2.088,-2.723 -2.288,-4.662l4.704,0Z" style="fill:url(#_Linear11);fill-rule:nonzero;"/></g><circle cx="23.047" cy="23.04" r="23.04" style="fill:url(#_Linear12);"/></g></g><defs><linearGradient id="_Linear2" x1="0" y1="0" x2="1" y2="0" gradientUnits="userSpaceOnUse" gradientTransform="matrix(-5.901e-14,42.768,-366.949,-6.87762e-15,63.2274,7.08624)"><stop offset="0" style="stop-color:#43ade9;stop-opacity:1"/><stop offset="1" style="stop-color:#138aca;stop-opacity:1"/></linearGradient><linearGradient id="_Linear3" x1="0" y1="0" x2="1" y2="0" gradientUnits="userSpaceOnUse" gradientTransform="matrix(-5.901e-14,42.768,-366.949,-6.87762e-15,63.2274,7.08624)"><stop offset="0" style="stop-color:#43ade9;stop-opacity:1"/><stop offset="1" style="stop-color:#138aca;stop-opacity:1"/></linearGradient><linearGradient id="_Linear4" x1="0" y1="0" x2="1" y2="0" gradientUnits="userSpaceOnUse" gradientTransform="matrix(-5.901e-14,42.768,-366.949,-6.87762e-15,63.2274,7.08624)"><stop offset="0" style="stop-color:#43ade9;stop-opacity:1"/><stop offset="1" style="stop-color:#138aca;stop-opacity:1"/></linearGradient><linearGradient id="_Linear5" x1="0" y1="0" x2="1" y2="0" gradientUnits="userSpaceOnUse" gradientTransform="matrix(-5.901e-14,42.768,-366.949,-6.87762e-15,63.2274,7.08624)"><stop offset="0" style="stop-color:#43ade9;stop-opacity:1"/><stop offset="1" style="stop-color:#138aca;stop-opacity:1"/></linearGradient><linearGradient id="_Linear6" x1="0" y1="0" x2="1" y2="0" gradientUnits="userSpaceOnUse" gradientTransform="matrix(-5.901e-14,42.768,-366.949,-6.87762e-15,63.2274,7.08624)"><stop offset="0" style="stop-color:#43ade9;stop-opacity:1"/><stop offset="1" style="stop-color:#138aca;stop-opacity:1"/></linearGradient><linearGradient id="_Linear7" x1="0" y1="0" x2="1" y2="0" gradientUnits="userSpaceOnUse" gradientTransform="matrix(-5.901e-14,42.768,-366.949,-6.87762e-15,63.2274,7.08624)"><stop offset="0" style="stop-color:#43ade9;stop-opacity:1"/><stop offset="1" style="stop-color:#138aca;stop-opacity:1"/></linearGradient><linearGradient id="_Linear8" x1="0" y1="0" x2="1" y2="0" gradientUnits="userSpaceOnUse" gradientTransform="matrix(-5.901e-14,42.768,-366.949,-6.87762e-15,63.2274,7.08624)"><stop offset="0" style="stop-color:#43ade9;stop-opacity:1"/><stop offset="1" style="stop-color:#138aca;stop-opacity:1"/></linearGradient><linearGradient id="_Linear9" x1="0" y1="0" x2="1" y2="0" gradientUnits="userSpaceOnUse" gradientTransform="matrix(-5.901e-14,42.768,-366.949,-6.87762e-15,63.2274,7.08624)"><stop offset="0" style="stop-color:#43ade9;stop-opacity:1"/><stop offset="1" style="stop-color:#138aca;stop-opacity:1"/></linearGradient><linearGradient id="_Linear10" x1="0" y1="0" x2="1" y2="0" gradientUnits="userSpaceOnUse" gradientTransform="matrix(-5.901e-14,42.768,-366.949,-6.87762e-15,63.2274,7.08624)"><stop offset="0" style="stop-color:#43ade9;stop-opacity:1"/><stop offset="1" style="stop-color:#138aca;stop-opacity:1"/></linearGradient><linearGradient id="_Linear11" x1="0" y1="0" x2="1" y2="0" gradientUnits="userSpaceOnUse" gradientTransform="matrix(-5.901e-14,42.768,-366.949,-6.87762e-15,63.2274,7.08624)"><stop offset="0" style="stop-color:#43ade9;stop-opacity:1"/><stop offset="1" style="stop-color:#138aca;stop-opacity:1"/></linearGradient><linearGradient id="_Linear12" x1="0" y1="0" x2="1" y2="0" gradientUnits="userSpaceOnUse" gradientTransform="matrix(-1.32182e-14,46.08,-82.1968,-7.41023e-15,0.00730559,-6.82121e-13)"><stop offset="0" style="stop-color:#43ade9;stop-opacity:1"/><stop offset="1" style="stop-color:#138aca;stop-opacity:1"/></linearGradient></defs></svg>