<svg xmlns="http://www.w3.org/2000/svg" xmlns:xlink="http://www.w3.org/1999/xlink" width="1024" height="260" viewBox="0 0 1024 260">
  <defs>
    <filter id="perspectives-screenshot-3-a" width="118.8%" height="137.5%" x="-9.4%" y="-18.8%" filterUnits="objectBoundingBox">
      <feGaussianBlur in="SourceGraphic" stdDeviation="2"/>
    </filter>
    <linearGradient id="perspectives-screenshot-3-b" x1="28.424%" x2="50%" y1="42.843%" y2="62.5%">
      <stop offset="0%" stop-color="#A3C58A"/>
      <stop offset="100%" stop-color="#77B84A"/>
    </linearGradient>
    <filter id="perspectives-screenshot-3-c" width="126.7%" height="153.3%" x="-13.3%" y="-26.7%" filterUnits="objectBoundingBox">
      <feGaussianBlur in="SourceGraphic" stdDeviation="2"/>
    </filter>
    <linearGradient id="perspectives-screenshot-3-d" x1="37.863%" x2="50%" y1="21.371%" y2="100%">
      <stop offset="0%" stop-color="#92D4F3"/>
      <stop offset="100%" stop-color="#50BCEE"/>
    </linearGradient>
    <linearGradient id="perspectives-screenshot-3-e" x1="28.424%" x2="50%" y1="42.843%" y2="62.5%">
      <stop offset="0%" stop-color="#92D4F3"/>
      <stop offset="100%" stop-color="#50BCEE"/>
    </linearGradient>
    <filter id="perspectives-screenshot-3-f" width="126.1%" height="152.2%" x="-13%" y="-26.1%" filterUnits="objectBoundingBox">
      <feGaussianBlur in="SourceGraphic" stdDeviation="2"/>
    </filter>
    <linearGradient id="perspectives-screenshot-3-g" x1="29.605%" x2="49.848%" y1="21.371%" y2="99.413%">
      <stop offset="0%" stop-color="#F3AD92"/>
      <stop offset="100%" stop-color="#EC7546"/>
    </linearGradient>
    <filter id="perspectives-screenshot-3-h" width="125%" height="200%" x="-12.5%" y="-50%" filterUnits="objectBoundingBox">
      <feGaussianBlur in="SourceGraphic" stdDeviation="2"/>
    </filter>
    <linearGradient id="perspectives-screenshot-3-i" x1="28.424%" x2="49.839%" y1="33.896%" y2="77.795%">
      <stop offset="0%" stop-color="#46AEDF"/>
      <stop offset="100%" stop-color="#006FA2"/>
    </linearGradient>
    <filter id="perspectives-screenshot-3-j" width="115%" height="130%" x="-7.5%" y="-15%" filterUnits="objectBoundingBox">
      <feGaussianBlur in="SourceGraphic" stdDeviation="2"/>
    </filter>
    <linearGradient id="perspectives-screenshot-3-k" x1="36.284%" x2="44.901%" y1="50%" y2="42.788%">
      <stop offset="0%" stop-color="#EC4C57"/>
      <stop offset="100%" stop-color="#EA747C"/>
    </linearGradient>
    <linearGradient id="perspectives-screenshot-3-l" x1="50%" x2="50%" y1="4.011%" y2="73.222%">
      <stop offset="0%" stop-color="#EA747C"/>
      <stop offset="100%" stop-color="#EC4C57"/>
    </linearGradient>
    <linearGradient id="perspectives-screenshot-3-m" x1="52.383%" x2="52.383%" y1="0%" y2="85.008%">
      <stop offset="0%" stop-color="#787878"/>
      <stop offset="100%" stop-color="#9A9A9A"/>
    </linearGradient>
    <linearGradient id="perspectives-screenshot-3-n" x1="47.534%" x2="75.513%" y1="14.871%" y2="68.851%">
      <stop offset="0%" stop-color="#AFDD81"/>
      <stop offset="100%" stop-color="#77B84A"/>
    </linearGradient>
    <linearGradient id="perspectives-screenshot-3-o" x1="10.386%" x2="0%" y1="76.987%" y2="28.806%">
      <stop offset="0%" stop-color="#1E1E1E"/>
      <stop offset="100%"/>
    </linearGradient>
    <rect id="perspectives-screenshot-3-p" width="169.302" height="106.557" rx="1"/>
    <linearGradient id="perspectives-screenshot-3-r" x1="100%" x2="-2.053%" y1="62.126%" y2="25.811%">
      <stop offset="0%" stop-color="#FFF" stop-opacity=".02"/>
      <stop offset="100%" stop-color="#FFF" stop-opacity=".2"/>
    </linearGradient>
    <linearGradient id="perspectives-screenshot-3-s" x1="108.867%" x2="0%" y1="50.2%" y2="49.8%">
      <stop offset="0%" stop-color="#CFCFCF"/>
      <stop offset="100%" stop-color="#9A9A9A"/>
    </linearGradient>
    <ellipse id="perspectives-screenshot-3-t" cx="104.424" cy="103.54" rx="104" ry="103"/>
    <ellipse id="perspectives-screenshot-3-v" cx="83.946" cy="83.152" rx="83.946" ry="83.152"/>
    <ellipse id="perspectives-screenshot-3-x" cx="100.194" cy="99.246" rx="100.194" ry="99.246"/>
    <ellipse id="perspectives-screenshot-3-z" cx="88.008" cy="87.175" rx="88.008" ry="87.175"/>
    <ellipse id="perspectives-screenshot-3-B" cx="77.854" cy="77.117" rx="77.854" ry="77.117"/>
    <ellipse id="perspectives-screenshot-3-D" cx="111.654" cy="110.834" rx="111" ry="110"/>
    <ellipse id="perspectives-screenshot-3-F" cx="88.455" cy="87.552" rx="88" ry="87"/>
    <ellipse id="perspectives-screenshot-3-H" cx="100.393" cy="99.591" rx="100.194" ry="99.246"/>
    <ellipse id="perspectives-screenshot-3-J" cx="67.022" cy="66.387" rx="67.022" ry="66.387"/>
    <ellipse id="perspectives-screenshot-3-L" cx="90.716" cy="89.858" rx="90.716" ry="89.858"/>
  </defs>
  <g fill="none" fill-rule="evenodd">
    <g transform="translate(19 36)">
      <g transform="translate(58 149)">
        <polygon fill="#424242" points="32 36 64 52 32 68 0 52" filter="url(#perspectives-screenshot-3-a)" opacity=".05"/>
        <polygon fill="url(#perspectives-screenshot-3-b)" fill-opacity=".6" points="32 24 64 40 32 56 0 40" opacity=".5"/>
        <polygon fill="url(#perspectives-screenshot-3-b)" fill-opacity=".7" points="32 12 64 28 32 44 0 28" opacity=".7"/>
        <polygon fill="url(#perspectives-screenshot-3-b)" fill-opacity=".8" points="32 0 64 16 32 32 0 16" opacity=".9"/>
      </g>
      <g transform="translate(161 115)">
        <ellipse cx="22.5" cy="55.25" fill="#424242" filter="url(#perspectives-screenshot-3-c)" opacity=".1" rx="22.5" ry="11.25"/>
        <path fill="url(#perspectives-screenshot-3-d)" d="M45,48.75 C45,54.9632034 34.9264069,60 22.5,60 C10.0735931,60 0,54.9632034 0,48.75 L0,11.25 C0,5.03679656 10.0735931,0 22.5,0 C34.9264069,0 45,5.03679656 45,11.25 L45,48.75 Z"/>
        <ellipse cx="22.5" cy="11.25" fill="url(#perspectives-screenshot-3-e)" rx="22.5" ry="11.25"/>
      </g>
      <g transform="translate(0 67)">
        <ellipse cx="27" cy="51.5" fill="#424242" filter="url(#perspectives-screenshot-3-f)" opacity=".1" rx="23" ry="11.5"/>
        <path fill="url(#perspectives-screenshot-3-g)" d="M27,5 L27,32 L53.3626847,26.1416256 C53.779978,28.0278611 54,29.9882361 54,32 C54,46.9116882 41.9116882,59 27,59 C12.0883118,59 0,46.9116882 0,32 C0,17.0883118 12.0883118,5 27,5 Z M31,0 C43.8999244,0 54.6868974,9.04662001 57.3626847,21.1416256 L31,27 L31,0 Z"/>
      </g>
      <g transform="translate(66)">
        <path fill="#424242" d="M11,39 L17,39 C17.5522847,39 18,39.4477153 18,40 L18,48 L10,48 L10,40 C10,39.4477153 10.4477153,39 11,39 Z M1,36 L7,36 C7.55228475,36 8,36.4477153 8,37 L8,48 L0,48 L0,37 C-6.76353751e-17,36.4477153 0.44771525,36 1,36 Z M21,42 L27,42 C27.5522847,42 28,42.4477153 28,43 L28,48 L20,48 L20,43 C20,42.4477153 20.4477153,42 21,42 Z M31,45.75 L37,45.75 C37.5522847,45.75 38,46.1977153 38,46.75 L38,48 L30,48 L30,46.75 C30,46.1977153 30.4477153,45.75 31,45.75 Z M41,44.25 L47,44.25 C47.5522847,44.25 48,44.6977153 48,45.25 L48,48 L40,48 L40,45.25 C40,44.6977153 40.4477153,44.25 41,44.25 Z" filter="url(#perspectives-screenshot-3-h)" opacity=".1" transform="matrix(1 0 0 -1 0 84)"/>
        <path fill="url(#perspectives-screenshot-3-i)" d="M11,8 L17,8 C17.5522847,8 18,8.44771525 18,9 L18,36 L10,36 L10,9 C10,8.44771525 10.4477153,8 11,8 Z M1,0 L7,0 C7.55228475,-1.01453063e-16 8,0.44771525 8,1 L8,36 L0,36 L0,1 C-6.76353751e-17,0.44771525 0.44771525,1.01453063e-16 1,0 Z M21,19 L27,19 C27.5522847,19 28,19.4477153 28,20 L28,36 L20,36 L20,20 C20,19.4477153 20.4477153,19 21,19 Z M31,29 L37,29 C37.5522847,29 38,29.4477153 38,30 L38,36 L30,36 L30,30 C30,29.4477153 30.4477153,29 31,29 Z M41,24 L47,24 C47.5522847,24 48,24.4477153 48,25 L48,36 L40,36 L40,25 C40,24.4477153 40.4477153,24 41,24 Z"/>
      </g>
      <g transform="translate(147 38)">
        <polygon fill="#424242" points="40 1 80 21 40 41 0 21" filter="url(#perspectives-screenshot-3-j)" opacity=".1"/>
        <polygon fill="url(#perspectives-screenshot-3-k)" points="40 0 80 20 68.75 21.25 28.75 1.25"/>
        <polygon fill="url(#perspectives-screenshot-3-l)" points="8.75 11.25 48.75 31.25 40 40 0 20"/>
        <polygon fill="url(#perspectives-screenshot-3-k)" points="20 10 60 30 48.75 31.25 8.75 11.25"/>
        <polygon fill="url(#perspectives-screenshot-3-l)" points="28.75 1.25 68.75 21.25 60 30 20 10"/>
        <path fill="#FFF" d="M53 23.5C49.6666667 20.3409492 48 17.8409492 48 16 48 13.2385763 50.2385763 11 53 11 55.7614237 11 58 13.2385763 58 16 58 17.8409492 56.3333333 20.3409492 53 23.5zM53 17.875C54.0355339 17.875 54.875 17.0355339 54.875 16 54.875 14.9644661 54.0355339 14.125 53 14.125 51.9644661 14.125 51.125 14.9644661 51.125 16 51.125 17.0355339 51.9644661 17.875 53 17.875zM31 18.5C27.6666667 15.3409492 26 12.8409492 26 11 26 8.23857625 28.2385763 6 31 6 33.7614237 6 36 8.23857625 36 11 36 12.8409492 34.3333333 15.3409492 31 18.5zM31 12.875C32.0355339 12.875 32.875 12.0355339 32.875 11 32.875 9.96446609 32.0355339 9.125 31 9.125 29.9644661 9.125 29.125 9.96446609 29.125 11 29.125 12.0355339 29.9644661 12.875 31 12.875zM36 31.5C32.6666667 28.3409492 31 25.8409492 31 24 31 21.2385763 33.2385763 19 36 19 38.7614237 19 41 21.2385763 41 24 41 25.8409492 39.3333333 28.3409492 36 31.5zM36 25.875C37.0355339 25.875 37.875 25.0355339 37.875 24 37.875 22.9644661 37.0355339 22.125 36 22.125 34.9644661 22.125 34.125 22.9644661 34.125 24 34.125 25.0355339 34.9644661 25.875 36 25.875z"/>
      </g>
    </g>
    <g transform="translate(779 70)">
      <path fill="url(#perspectives-screenshot-3-m)" d="M67.4044749,138.264928 L68.75,129 L111.25,129 L112.595525,138.264928 C113.063323,141.486061 115.499228,144.068807 118.6875,144.724138 L122.930407,145.596243 C123.553093,145.724233 124,146.272342 124,146.908046 L124,146.908046 C124,147.511116 123.511116,148 122.908046,148 L57.091954,148 C56.4888845,148 56,147.511116 56,146.908046 L56,146.908046 C56,146.272342 56.4469069,145.724233 57.0695934,145.596243 L61.3125,144.724138 C64.5007717,144.068807 66.9366767,141.486061 67.4044749,138.264928 Z"/>
      <g transform="translate(81 31)">
        <path fill="url(#perspectives-screenshot-3-n)" d="M3.25685394,2.63246336 L7.72857964,0.333716869 C8.1905501,0.0962351803 8.73871959,0.0962351803 9.20069005,0.333716869 L9.20069005,0.333716869 C9.65263079,0.566042653 9.93674526,1.03155165 9.93674526,1.53971077 L9.93674526,5.75281325 C9.93674526,8.00128599 8.6796122,10.0610429 6.67989131,11.0890244 L1.65612421,13.6715547 C1.30964637,13.849666 0.898519247,13.849666 0.552041403,13.6715547 L0.552041403,13.6715547 C0.213085852,13.4973104 -8.15810658e-15,13.1481786 -8.8817842e-15,12.7670593 L-3.55271368e-15,7.96867454 C-3.82807217e-15,5.72020181 1.25713306,3.66044488 3.25685394,2.63246336 Z"/>
        <path fill="#77B84A" d="M8.11311823,2.48926322 C7.98773654,2.5002372 7.86234823,2.53522173 7.74349904,2.59631764 L3.46856498,4.79390093 C2.46870454,5.30789169 1.84013801,6.33777015 1.84013801,7.46200651 L1.84013801,10.0466124 C1.84013801,10.2056382 1.87806433,10.3623709 1.95076948,10.5038034 C2.2032691,10.9949881 2.80614434,11.1884806 3.29732902,10.935981 L8.11507207,8.45935993 C8.7816457,8.11669942 9.20069005,7.43011378 9.20069005,6.68062287 L9.20069005,3.48568617 C9.20069005,3.40489008 9.19089997,3.3246859 9.17173259,3.24677952 C9.33876796,3.43348076 9.48497211,3.64431244 9.60485084,3.87751119 C9.82296628,4.3018087 9.93674526,4.77200695 9.93674526,5.24908422 L9.93674526,8.27966282 L1.10408281,12.8202034 L1.10408281,7.92591132 C1.10408281,6.05218405 2.15169369,4.33571994 3.81812776,3.47906868 L5.56517223,2.58097863 C6.3905634,2.15667598 7.32108424,2.15216704 8.11311823,2.48926322 Z"/>
      </g>
      <path fill="url(#perspectives-screenshot-3-o)" d="M6,0 L176,0 C179.313708,-6.08718376e-16 182,2.6862915 182,6 L182,118.491803 L0,118.491803 L0,6 C-4.05812251e-16,2.6862915 2.6862915,6.08718376e-16 6,0 Z"/>
      <g transform="translate(6.772 5.967)">
        <mask id="perspectives-screenshot-3-q" fill="#fff">
          <use xlink:href="#perspectives-screenshot-3-p"/>
        </mask>
        <use fill="#D8D8D8" xlink:href="#perspectives-screenshot-3-p"/>
        <g mask="url(#perspectives-screenshot-3-q)">
          <g transform="rotate(11.25 420.057 -72.247)">
            <circle cx="117.727" cy="62.606" r="55" fill="#463695" opacity=".6"/>
            <circle cx="78.325" cy="78.604" r="55.131" fill="#EC7546" opacity=".6" transform="rotate(-45 78.325 78.604)"/>
            <circle cx="62.365" cy="117.46" r="55" fill="#006FA2" opacity=".6" transform="rotate(-90 62.365 117.46)"/>
            <circle cx="78.325" cy="156.708" r="55.131" fill="#DDC900" opacity=".6" transform="rotate(-135 78.325 156.708)"/>
            <circle cx="117.22" cy="172.822" r="55" fill="#424242" opacity=".6" transform="rotate(180 117.22 172.822)"/>
            <circle cx="156.027" cy="157.016" r="55.131" fill="#50BCEE" opacity=".5" transform="rotate(135 156.027 157.016)"/>
            <circle cx="172.582" cy="117.968" r="55" fill="#77B84A" opacity=".7" transform="rotate(90 172.582 117.968)"/>
            <circle cx="156.155" cy="78.604" r="55.131" fill="#EC4C57" opacity=".6" transform="rotate(45 156.155 78.604)"/>
          </g>
        </g>
      </g>
      <path fill="url(#perspectives-screenshot-3-r)" d="M91.4232558,-1.51700874e-12 L176,-1.51789692e-12 C179.313708,-1.51850564e-12 182,2.6862915 182,6 L182,63 L91.4232558,-1.51700874e-12 Z" opacity=".5"/>
      <path fill="url(#perspectives-screenshot-3-s)" d="M4,118.491803 L178,118.491803 C180.209139,118.491803 182,120.282664 182,122.491803 L182,130 L0,130 L0,122.491803 C-2.705415e-16,120.282664 1.790861,118.491803 4,118.491803 Z" transform="matrix(1 0 0 -1 0 248.492)"/>
    </g>
    <g transform="translate(402 38)">
      <g transform="translate(7.72 7.651)">
        <mask id="perspectives-screenshot-3-u" fill="#fff">
          <use xlink:href="#perspectives-screenshot-3-t"/>
        </mask>
        <path fill="#77B84A" d="M104.424277,210.832749 C126.653162,210.832749 148.343842,204.058419 166.552775,191.429056 L135.488526,147.484561 C126.384398,153.799208 115.539058,157.186374 104.424277,157.186374 L104.424277,210.832749 Z" mask="url(#perspectives-screenshot-3-u)"/>
      </g>
      <g transform="translate(28.197 28.04)">
        <mask id="perspectives-screenshot-3-w" fill="#fff">
          <use xlink:href="#perspectives-screenshot-3-v"/>
        </mask>
        <path fill="#EC4C57" d="M147.614419,169.953529 C165.597916,157.01134 179.126157,138.901933 186.363154,118.083049 L135.154464,100.61713 C131.535966,111.02721 124.772184,120.081377 115.780436,126.552739 L147.614419,169.953529 Z" mask="url(#perspectives-screenshot-3-w)"/>
      </g>
      <g transform="translate(11.95 11.945)">
        <mask id="perspectives-screenshot-3-y" fill="#fff">
          <use xlink:href="#perspectives-screenshot-3-x"/>
        </mask>
        <path fill="#DDC900" d="M203.210665,132.401267 C206.722876,121.69345 208.512154,110.504828 208.512154,99.2457949 C208.512154,88.615095 206.917172,78.0427355 203.779335,67.8767473 L151.986405,83.5609358 C153.555662,88.6446005 154.353153,93.9301097 154.353153,99.2457949 C154.353153,104.875311 153.458853,110.469287 151.702747,115.823196 L203.210665,132.401267 Z" mask="url(#perspectives-screenshot-3-y)"/>
      </g>
      <g transform="translate(24.135 24.016)">
        <mask id="perspectives-screenshot-3-A" fill="#fff">
          <use xlink:href="#perspectives-screenshot-3-z"/>
        </mask>
        <path fill="#463695" d="M191.02489,54.0198885 C184.155497,33.0790258 170.948825,14.7386711 153.195505,1.48734576 L120.601941,44.3313531 C129.478601,50.957351 136.081937,60.1275284 139.516972,70.5979597 L191.02489,54.0198885 Z" mask="url(#perspectives-screenshot-3-A)"/>
      </g>
      <g transform="translate(34.29 34.074)">
        <mask id="perspectives-screenshot-3-C" fill="#fff">
          <use xlink:href="#perspectives-screenshot-3-B"/>
        </mask>
        <path fill="#8D8D8D" d="M141.521532,-9.68518254 C123.537359,-22.6273707 101.96989,-29.7757502 79.7437132,-30.1599924 L78.7986387,23.4783363 C89.9113887,23.6707927 100.6958,27.2449824 109.687548,33.7160765 L141.521532,-9.68518254 Z" mask="url(#perspectives-screenshot-3-C)"/>
      </g>
      <g transform="translate(.49 .357)">
        <mask id="perspectives-screenshot-3-E" fill="#fff">
          <use xlink:href="#perspectives-screenshot-3-D"/>
        </mask>
        <path fill="#4BA7DC" d="M111.654402,3.54144975 C89.4255168,3.54144975 67.7346337,10.3156458 49.5257683,22.9453438 L80.5901527,66.8897724 C89.6942808,60.5749234 100.539621,57.1878254 111.654402,57.1878254 L111.654402,3.54144975 Z" mask="url(#perspectives-screenshot-3-E)"/>
      </g>
      <g transform="translate(23.689 23.64)">
        <mask id="perspectives-screenshot-3-G" fill="#fff">
          <use xlink:href="#perspectives-screenshot-3-F"/>
        </mask>
        <path fill="#4D708D" d="M24.7874748,0.749889538 C6.8039108,13.6920777 -6.72439838,31.8017529 -13.9614626,52.6205701 L37.2468884,70.0864889 C40.8654544,59.6764097 47.6295751,50.6222426 56.6212556,44.1511486 L24.7874748,0.749889538 Z" mask="url(#perspectives-screenshot-3-G)"/>
      </g>
      <g transform="translate(11.75 11.6)">
        <mask id="perspectives-screenshot-3-I" fill="#fff">
          <use xlink:href="#perspectives-screenshot-3-H"/>
        </mask>
        <path fill="#7FBC77" d="M-2.6234357,66.4351926 C-6.13585002,77.1430092 -7.92492492,88.3316314 -7.92492492,99.5906645 C-7.92492492,110.221364 -6.32987464,120.793724 -3.19196982,130.959712 L48.6005537,115.275524 C47.0316352,110.191859 46.2340762,104.90635 46.2340762,99.5906645 C46.2340762,93.9611479 47.1285798,88.3671721 48.8848208,83.0132638 L-2.6234357,66.4351926 Z" mask="url(#perspectives-screenshot-3-I)"/>
      </g>
      <g transform="translate(45.122 44.804)">
        <mask id="perspectives-screenshot-3-K" fill="#fff">
          <use xlink:href="#perspectives-screenshot-3-J"/>
        </mask>
        <path fill="#C56782" d="M-35.9947491,99.5428617 C-29.1256276,120.48359 -15.9184813,138.824079 1.83436537,152.075203 L34.4282,109.231263 C25.5516074,102.60607 18.9480681,93.4352218 15.5135074,82.9647905 L-35.9947491,99.5428617 Z" mask="url(#perspectives-screenshot-3-K)"/>
      </g>
      <g transform="translate(21.428 21.333)">
        <mask id="perspectives-screenshot-3-M" fill="#fff">
          <use xlink:href="#perspectives-screenshot-3-L"/>
        </mask>
        <path fill="#EC7546" d="M27.0485622,176.659325 C45.0321939,189.601514 66.6000006,196.749826 88.8261777,197.134068 L89.7712523,143.495874 C78.6585022,143.303753 67.8740911,139.72963 58.882343,133.258536 L27.0485622,176.659325 Z" mask="url(#perspectives-screenshot-3-M)"/>
      </g>
    </g>
    <path fill="#DADADA" fill-rule="nonzero" d="M471.665 22L471.665 11.5 478.64 11.5 478.64 13.09 473.42 13.09 473.42 16.06 478.16 16.06 478.16 17.65 473.42 17.65 473.42 22 471.665 22zM480.515 22L480.515 14.26 481.955 14.26 482.105 15.49 482.165 15.49C482.48 14.695 483.2 14.155 484.175 14.155L484.805 14.155 484.805 15.745 484.145 15.745C482.84 15.745 482.165 16.645 482.165 18.22L482.165 22 480.515 22zM488.465 22.135C486.755 22.135 485.765 21.085 485.765 19.72 485.765 18.37 486.71 17.32 488.93 17.32 489.635 17.32 490.325 17.455 490.73 17.575L490.73 16.855C490.73 16.135 490.28 15.535 489.2 15.535 488.255 15.535 487.76 16.06 487.745 16.69L486.125 16.69C486.125 15.22 487.28 14.125 489.23 14.125 491.27 14.125 492.425 15.31 492.425 16.84L492.425 22 490.925 22 490.805 21.085 490.745 21.085C490.295 21.745 489.5 22.135 488.465 22.135zM488.855 20.77C489.995 20.77 490.73 19.99 490.73 19.075L490.73 18.82C490.16 18.625 489.62 18.55 489.05 18.55 488.015 18.55 487.475 18.97 487.475 19.66 487.475 20.29 487.925 20.77 488.855 20.77zM503.195 14.125C504.905 14.125 505.955 15.205 505.955 16.945L505.955 22 504.245 22 504.245 17.365C504.245 16.315 503.81 15.67 502.745 15.67 501.71 15.67 501.095 16.435 501.095 17.725L501.095 22 499.4 22 499.4 17.365C499.4 16.315 498.965 15.67 497.9 15.67 496.865 15.67 496.175 16.435 496.175 17.725L496.175 22 494.465 22 494.465 14.26 495.98 14.26 496.115 15.265 496.175 15.265C496.595 14.605 497.285 14.125 498.41 14.125 499.49 14.125 500.3 14.56 500.735 15.34L500.78 15.34C501.185 14.68 501.965 14.125 503.195 14.125zM511.145 22.135C508.79 22.135 507.485 20.38 507.485 18.13 507.485 15.91 508.67 14.125 511.115 14.125 513.38 14.125 514.61 15.76 514.61 17.89L514.61 18.61 509.255 18.61C509.255 19.84 509.885 20.695 511.145 20.695 512.09 20.695 512.66 20.275 512.84 19.645L514.505 19.645C514.295 21.055 512.99 22.135 511.145 22.135zM509.27 17.395L512.855 17.395C512.84 16.375 512.285 15.58 511.115 15.58 509.87 15.58 509.315 16.39 509.27 17.395zM517.505 22L515.45 14.41 515.45 14.26 517.16 14.26 518.54 19.96 518.6 19.96 520.085 14.26 522.14 14.26 523.625 19.96 523.685 19.96 525.065 14.26 526.76 14.26 526.76 14.41 524.705 22 522.65 22 521.165 16.3 521.105 16.3 519.56 22 517.505 22zM531.245 22.135C528.785 22.135 527.585 20.41 527.585 18.13 527.585 15.865 528.815 14.125 531.245 14.125 533.675 14.125 534.905 15.865 534.905 18.13 534.905 20.395 533.705 22.135 531.245 22.135zM531.245 20.62C532.55 20.62 533.165 19.69 533.165 18.13 533.165 16.585 532.55 15.64 531.245 15.64 529.94 15.64 529.325 16.6 529.325 18.13 529.325 19.69 529.955 20.62 531.245 20.62zM536.585 22L536.585 14.26 538.025 14.26 538.175 15.49 538.235 15.49C538.55 14.695 539.27 14.155 540.245 14.155L540.875 14.155 540.875 15.745 540.215 15.745C538.91 15.745 538.235 16.645 538.235 18.22L538.235 22 536.585 22zM545.87 17.77L549.125 21.85 549.125 22 547.1 22 544.085 18.19 544.085 22 542.435 22 542.435 10.9 544.085 10.9 544.085 17.41 546.995 14.26 549.005 14.26 549.005 14.41 545.87 17.77zM552.845 22.135C550.76 22.135 549.605 21.055 549.56 19.42L551.27 19.42C551.27 20.185 551.87 20.665 552.845 20.665 553.82 20.665 554.33 20.335 554.33 19.795 554.33 19.36 554.015 19.06 553.31 18.91L551.945 18.655C550.685 18.4 549.8 17.695 549.8 16.375 549.8 15.1 550.91 14.125 552.785 14.125 554.645 14.125 555.875 15.16 555.875 16.66L554.195 16.66C554.165 15.955 553.64 15.505 552.755 15.505 551.99 15.505 551.465 15.82 551.465 16.39 551.465 16.855 551.84 17.125 552.485 17.23L553.805 17.485C555.155 17.77 556.055 18.325 556.055 19.795 556.055 21.295 554.645 22.135 552.845 22.135zM117.32 22L117.32 11.5 120.86 11.5C123.92 11.5 125.87 13.6 125.87 16.75 125.87 19.675 124.07 22 120.86 22L117.32 22zM119.015 20.425L120.725 20.425C122.96 20.425 124.07 18.94 124.07 16.75 124.07 14.575 122.96 13.09 120.725 13.09L119.015 13.09 119.015 20.425zM129.86 22.135C128.15 22.135 127.16 21.085 127.16 19.72 127.16 18.37 128.105 17.32 130.325 17.32 131.03 17.32 131.72 17.455 132.125 17.575L132.125 16.855C132.125 16.135 131.675 15.535 130.595 15.535 129.65 15.535 129.155 16.06 129.14 16.69L127.52 16.69C127.52 15.22 128.675 14.125 130.625 14.125 132.665 14.125 133.82 15.31 133.82 16.84L133.82 22 132.32 22 132.2 21.085 132.14 21.085C131.69 21.745 130.895 22.135 129.86 22.135zM130.25 20.77C131.39 20.77 132.125 19.99 132.125 19.075L132.125 18.82C131.555 18.625 131.015 18.55 130.445 18.55 129.41 18.55 128.87 18.97 128.87 19.66 128.87 20.29 129.32 20.77 130.25 20.77zM138.8 22.135C137.15 22.135 136.505 21.22 136.505 19.885L136.505 15.715 135.23 15.715 135.23 14.26 136.58 14.26 136.58 12.625 138.065 12.205 138.215 12.205 138.215 14.26 140.09 14.26 140.09 15.715 138.215 15.715 138.215 19.585C138.215 20.32 138.53 20.635 139.22 20.635 139.535 20.635 139.775 20.59 139.97 20.53L140.12 20.53 140.12 21.97C139.88 22.045 139.385 22.135 138.8 22.135zM144.08 22.135C142.37 22.135 141.38 21.085 141.38 19.72 141.38 18.37 142.325 17.32 144.545 17.32 145.25 17.32 145.94 17.455 146.345 17.575L146.345 16.855C146.345 16.135 145.895 15.535 144.815 15.535 143.87 15.535 143.375 16.06 143.36 16.69L141.74 16.69C141.74 15.22 142.895 14.125 144.845 14.125 146.885 14.125 148.04 15.31 148.04 16.84L148.04 22 146.54 22 146.42 21.085 146.36 21.085C145.91 21.745 145.115 22.135 144.08 22.135zM144.47 20.77C145.61 20.77 146.345 19.99 146.345 19.075L146.345 18.82C145.775 18.625 145.235 18.55 144.665 18.55 143.63 18.55 143.09 18.97 143.09 19.66 143.09 20.29 143.54 20.77 144.47 20.77zM780.5925 22.135C778.1325 22.135 776.4075 20.71 776.4075 18.1L776.4075 11.5 778.1625 11.5 778.1625 18.07C778.1625 19.495 778.8525 20.545 780.5925 20.545 782.3625 20.545 783.0375 19.495 783.0375 18.07L783.0375 11.5 784.8075 11.5 784.8075 18.1C784.8075 20.71 783.0975 22.135 780.5925 22.135zM787.0575 22L787.0575 14.26 788.5725 14.26 788.7075 15.265 788.7675 15.265C789.1875 14.605 789.9225 14.125 791.0325 14.125 792.7575 14.125 793.8225 15.19 793.8225 16.945L793.8225 22 792.1125 22 792.1125 17.365C792.1125 16.285 791.6175 15.67 790.5375 15.67 789.4575 15.67 788.7675 16.435 788.7675 17.725L788.7675 22 787.0575 22zM798.5775 22.135C796.5825 22.135 795.3675 20.545 795.3525 18.115 795.3675 15.82 796.4925 14.125 798.5775 14.125 799.7025 14.125 800.4075 14.605 800.7975 15.19L800.8575 15.19 800.8575 10.9 802.5675 10.9 802.5675 22 801.0525 22 800.8575 21.07 800.7975 21.07C800.4075 21.655 799.7025 22.135 798.5775 22.135zM798.9975 20.62C800.3625 20.62 800.9175 19.465 800.9175 18.115 800.9175 16.78 800.3775 15.64 798.9975 15.64 797.5875 15.64 797.0925 16.78 797.0925 18.115 797.0925 19.48 797.6025 20.62 798.9975 20.62zM807.7575 22.135C805.4025 22.135 804.0975 20.38 804.0975 18.13 804.0975 15.91 805.2825 14.125 807.7275 14.125 809.9925 14.125 811.2225 15.76 811.2225 17.89L811.2225 18.61 805.8675 18.61C805.8675 19.84 806.4975 20.695 807.7575 20.695 808.7025 20.695 809.2725 20.275 809.4525 19.645L811.1175 19.645C810.9075 21.055 809.6025 22.135 807.7575 22.135zM805.8825 17.395L809.4675 17.395C809.4525 16.375 808.8975 15.58 807.7275 15.58 806.4825 15.58 805.9275 16.39 805.8825 17.395zM812.9175 22L812.9175 14.26 814.3575 14.26 814.5075 15.49 814.5675 15.49C814.8825 14.695 815.6025 14.155 816.5775 14.155L817.2075 14.155 817.2075 15.745 816.5475 15.745C815.2425 15.745 814.5675 16.645 814.5675 18.22L814.5675 22 812.9175 22zM821.5425 22.135C819.4575 22.135 818.3025 21.055 818.2575 19.42L819.9675 19.42C819.9675 20.185 820.5675 20.665 821.5425 20.665 822.5175 20.665 823.0275 20.335 823.0275 19.795 823.0275 19.36 822.7125 19.06 822.0075 18.91L820.6425 18.655C819.3825 18.4 818.4975 17.695 818.4975 16.375 818.4975 15.1 819.6075 14.125 821.4825 14.125 823.3425 14.125 824.5725 15.16 824.5725 16.66L822.8925 16.66C822.8625 15.955 822.3375 15.505 821.4525 15.505 820.6875 15.505 820.1625 15.82 820.1625 16.39 820.1625 16.855 820.5375 17.125 821.1825 17.23L822.5025 17.485C823.8525 17.77 824.7525 18.325 824.7525 19.795 824.7525 21.295 823.3425 22.135 821.5425 22.135zM829.3725 22.135C827.7225 22.135 827.0775 21.22 827.0775 19.885L827.0775 15.715 825.8025 15.715 825.8025 14.26 827.1525 14.26 827.1525 12.625 828.6375 12.205 828.7875 12.205 828.7875 14.26 830.6625 14.26 830.6625 15.715 828.7875 15.715 828.7875 19.585C828.7875 20.32 829.1025 20.635 829.7925 20.635 830.1075 20.635 830.3475 20.59 830.5425 20.53L830.6925 20.53 830.6925 21.97C830.4525 22.045 829.9575 22.135 829.3725 22.135zM834.6525 22.135C832.9425 22.135 831.9525 21.085 831.9525 19.72 831.9525 18.37 832.8975 17.32 835.1175 17.32 835.8225 17.32 836.5125 17.455 836.9175 17.575L836.9175 16.855C836.9175 16.135 836.4675 15.535 835.3875 15.535 834.4425 15.535 833.9475 16.06 833.9325 16.69L832.3125 16.69C832.3125 15.22 833.4675 14.125 835.4175 14.125 837.4575 14.125 838.6125 15.31 838.6125 16.84L838.6125 22 837.1125 22 836.9925 21.085 836.9325 21.085C836.4825 21.745 835.6875 22.135 834.6525 22.135zM835.0425 20.77C836.1825 20.77 836.9175 19.99 836.9175 19.075L836.9175 18.82C836.3475 18.625 835.8075 18.55 835.2375 18.55 834.2025 18.55 833.6625 18.97 833.6625 19.66 833.6625 20.29 834.1125 20.77 835.0425 20.77zM840.6525 22L840.6525 14.26 842.1675 14.26 842.3025 15.265 842.3625 15.265C842.7825 14.605 843.5175 14.125 844.6275 14.125 846.3525 14.125 847.4175 15.19 847.4175 16.945L847.4175 22 845.7075 22 845.7075 17.365C845.7075 16.285 845.2125 15.67 844.1325 15.67 843.0525 15.67 842.3625 16.435 842.3625 17.725L842.3625 22 840.6525 22zM852.1725 22.135C850.1775 22.135 848.9625 20.545 848.9475 18.115 848.9625 15.82 850.0875 14.125 852.1725 14.125 853.2975 14.125 854.0025 14.605 854.3925 15.19L854.4525 15.19 854.4525 10.9 856.1625 10.9 856.1625 22 854.6475 22 854.4525 21.07 854.3925 21.07C854.0025 21.655 853.2975 22.135 852.1725 22.135zM852.5925 20.62C853.9575 20.62 854.5125 19.465 854.5125 18.115 854.5125 16.78 853.9725 15.64 852.5925 15.64 851.1825 15.64 850.6875 16.78 850.6875 18.115 850.6875 19.48 851.1975 20.62 852.5925 20.62zM859.0575 13.075C858.3375 13.075 857.9625 12.655 857.9625 11.995 857.9625 11.335 858.3375 10.93 859.0575 10.93 859.7625 10.93 860.1525 11.335 860.1525 11.995 860.1525 12.655 859.7625 13.075 859.0575 13.075zM858.2025 22L858.2025 14.26 859.9125 14.26 859.9125 22 858.2025 22zM861.9525 22L861.9525 14.26 863.4675 14.26 863.6025 15.265 863.6625 15.265C864.0825 14.605 864.8175 14.125 865.9275 14.125 867.6525 14.125 868.7175 15.19 868.7175 16.945L868.7175 22 867.0075 22 867.0075 17.365C867.0075 16.285 866.5125 15.67 865.4325 15.67 864.3525 15.67 863.6625 16.435 863.6625 17.725L863.6625 22 861.9525 22zM873.8775 25.57C871.8525 25.57 870.5175 24.445 870.4725 22.84L872.1375 22.84C872.1975 23.485 872.7675 24.1 873.8775 24.1 875.1525 24.1 875.7525 23.35 875.7525 22.39L875.7525 21.07 875.6925 21.07C875.3025 21.655 874.5975 22.135 873.4725 22.135 871.3875 22.135 870.2625 20.44 870.2475 18.13 870.2625 15.715 871.4775 14.125 873.4725 14.125 874.5975 14.125 875.3025 14.605 875.6925 15.19L875.7525 15.19 875.9475 14.26 877.4625 14.26 877.4625 22.42C877.4625 24.265 876.0675 25.57 873.8775 25.57zM873.8925 20.62C875.2725 20.62 875.8125 19.465 875.8125 18.13 875.8125 16.795 875.2575 15.64 873.8925 15.64 872.4975 15.64 871.9875 16.78 871.9875 18.13 871.9875 19.48 872.4825 20.62 873.8925 20.62zM886.0575 22.135C884.3475 22.135 883.3575 21.085 883.3575 19.72 883.3575 18.37 884.3025 17.32 886.5225 17.32 887.2275 17.32 887.9175 17.455 888.3225 17.575L888.3225 16.855C888.3225 16.135 887.8725 15.535 886.7925 15.535 885.8475 15.535 885.3525 16.06 885.3375 16.69L883.7175 16.69C883.7175 15.22 884.8725 14.125 886.8225 14.125 888.8625 14.125 890.0175 15.31 890.0175 16.84L890.0175 22 888.5175 22 888.3975 21.085 888.3375 21.085C887.8875 21.745 887.0925 22.135 886.0575 22.135zM886.4475 20.77C887.5875 20.77 888.3225 19.99 888.3225 19.075L888.3225 18.82C887.7525 18.625 887.2125 18.55 886.6425 18.55 885.6075 18.55 885.0675 18.97 885.0675 19.66 885.0675 20.29 885.5175 20.77 886.4475 20.77zM892.0575 22L892.0575 14.26 893.5725 14.26 893.7075 15.265 893.7675 15.265C894.1875 14.605 894.9225 14.125 896.0325 14.125 897.7575 14.125 898.8225 15.19 898.8225 16.945L898.8225 22 897.1125 22 897.1125 17.365C897.1125 16.285 896.6175 15.67 895.5375 15.67 894.4575 15.67 893.7675 16.435 893.7675 17.725L893.7675 22 892.0575 22zM903.5775 22.135C901.5825 22.135 900.3675 20.545 900.3525 18.115 900.3675 15.82 901.4925 14.125 903.5775 14.125 904.7025 14.125 905.4075 14.605 905.7975 15.19L905.8575 15.19 905.8575 10.9 907.5675 10.9 907.5675 22 906.0525 22 905.8575 21.07 905.7975 21.07C905.4075 21.655 904.7025 22.135 903.5775 22.135zM903.9975 20.62C905.3625 20.62 905.9175 19.465 905.9175 18.115 905.9175 16.78 905.3775 15.64 903.9975 15.64 902.5875 15.64 902.0925 16.78 902.0925 18.115 902.0925 19.48 902.6025 20.62 903.9975 20.62zM916.7475 22.135C914.6625 22.135 913.5075 21.055 913.4625 19.42L915.1725 19.42C915.1725 20.185 915.7725 20.665 916.7475 20.665 917.7225 20.665 918.2325 20.335 918.2325 19.795 918.2325 19.36 917.9175 19.06 917.2125 18.91L915.8475 18.655C914.5875 18.4 913.7025 17.695 913.7025 16.375 913.7025 15.1 914.8125 14.125 916.6875 14.125 918.5475 14.125 919.7775 15.16 919.7775 16.66L918.0975 16.66C918.0675 15.955 917.5425 15.505 916.6575 15.505 915.8925 15.505 915.3675 15.82 915.3675 16.39 915.3675 16.855 915.7425 17.125 916.3875 17.23L917.7075 17.485C919.0575 17.77 919.9575 18.325 919.9575 19.795 919.9575 21.295 918.5475 22.135 916.7475 22.135zM921.6375 22L921.6375 10.9 923.3475 10.9 923.3475 15.265 923.4075 15.265C923.8275 14.605 924.5475 14.125 925.6575 14.125 927.3825 14.125 928.4625 15.19 928.4625 16.945L928.4625 22 926.7525 22 926.7525 17.365C926.7525 16.285 926.2425 15.67 925.1625 15.67 924.0975 15.67 923.3475 16.45 923.3475 17.74L923.3475 22 921.6375 22zM932.6925 22.135C930.9825 22.135 929.9925 21.085 929.9925 19.72 929.9925 18.37 930.9375 17.32 933.1575 17.32 933.8625 17.32 934.5525 17.455 934.9575 17.575L934.9575 16.855C934.9575 16.135 934.5075 15.535 933.4275 15.535 932.4825 15.535 931.9875 16.06 931.9725 16.69L930.3525 16.69C930.3525 15.22 931.5075 14.125 933.4575 14.125 935.4975 14.125 936.6525 15.31 936.6525 16.84L936.6525 22 935.1525 22 935.0325 21.085 934.9725 21.085C934.5225 21.745 933.7275 22.135 932.6925 22.135zM933.0825 20.77C934.2225 20.77 934.9575 19.99 934.9575 19.075L934.9575 18.82C934.3875 18.625 933.8475 18.55 933.2775 18.55 932.2425 18.55 931.7025 18.97 931.7025 19.66 931.7025 20.29 932.1525 20.77 933.0825 20.77zM938.6925 22L938.6925 14.26 940.1325 14.26 940.2825 15.49 940.3425 15.49C940.6575 14.695 941.3775 14.155 942.3525 14.155L942.9825 14.155 942.9825 15.745 942.3225 15.745C941.0175 15.745 940.3425 16.645 940.3425 18.22L940.3425 22 938.6925 22zM945.3975 13.075C944.6775 13.075 944.3025 12.655 944.3025 11.995 944.3025 11.335 944.6775 10.93 945.3975 10.93 946.1025 10.93 946.4925 11.335 946.4925 11.995 946.4925 12.655 946.1025 13.075 945.3975 13.075zM944.5425 22L944.5425 14.26 946.2525 14.26 946.2525 22 944.5425 22zM948.2925 22L948.2925 14.26 949.8075 14.26 949.9425 15.265 950.0025 15.265C950.4225 14.605 951.1575 14.125 952.2675 14.125 953.9925 14.125 955.0575 15.19 955.0575 16.945L955.0575 22 953.3475 22 953.3475 17.365C953.3475 16.285 952.8525 15.67 951.7725 15.67 950.6925 15.67 950.0025 16.435 950.0025 17.725L950.0025 22 948.2925 22zM960.2175 25.57C958.1925 25.57 956.8575 24.445 956.8125 22.84L958.4775 22.84C958.5375 23.485 959.1075 24.1 960.2175 24.1 961.4925 24.1 962.0925 23.35 962.0925 22.39L962.0925 21.07 962.0325 21.07C961.6425 21.655 960.9375 22.135 959.8125 22.135 957.7275 22.135 956.6025 20.44 956.5875 18.13 956.6025 15.715 957.8175 14.125 959.8125 14.125 960.9375 14.125 961.6425 14.605 962.0325 15.19L962.0925 15.19 962.2875 14.26 963.8025 14.26 963.8025 22.42C963.8025 24.265 962.4075 25.57 960.2175 25.57zM960.2325 20.62C961.6125 20.62 962.1525 19.465 962.1525 18.13 962.1525 16.795 961.5975 15.64 960.2325 15.64 958.8375 15.64 958.3275 16.78 958.3275 18.13 958.3275 19.48 958.8225 20.62 960.2325 20.62z"/>
    <polygon fill="#DADADA" points="323.85 129 330.15 129 330.15 145.13 336 145.13 327 161 318 145.13 323.85 145.13" transform="rotate(-90 327 145)"/>
    <polygon fill="#DADADA" points="694.85 129 701.15 129 701.15 145.13 707 145.13 698 161 689 145.13 694.85 145.13" transform="rotate(-90 698 145)"/>
    <path stroke="#B1B1B1" stroke-linecap="round" stroke-width="2" d="M536.275077 144.401893C533.657342 134.425525 524.253917 127.040816 513.054821 127.040816 502.080053 127.040816 492.829739 134.132644 490 143.805545M536 156.697191C533.777642 167.167396 524.20972 175.040816 512.743422 175.040816 500.617355 175.040816 490.614413 166.235257 489.177219 154.86504"/>
    <polygon fill="#B1B1B1" points="537 150 540 135 526 139"/>
    <polygon fill="#B1B1B1" points="488 151 499 162 485 166"/>
  </g>
</svg>
