<?xml version="1.0" encoding="UTF-8" standalone="no"?>
<!DOCTYPE svg PUBLIC "-//W3C//DTD SVG 1.1//EN" "http://www.w3.org/Graphics/SVG/1.1/DTD/svg11.dtd">
<svg width="100%" height="100%" viewBox="0 0 48 57" version="1.1" xmlns="http://www.w3.org/2000/svg" xmlns:xlink="http://www.w3.org/1999/xlink" xml:space="preserve" xmlns:serif="http://www.serif.com/" style="fill-rule:evenodd;clip-rule:evenodd;stroke-linejoin:round;stroke-miterlimit:1.41421;">
    <g transform="matrix(1,0,0,1,-7611.12,-1353)">
        <g transform="matrix(1,0,0,7.23333,7091,0)">
            <g transform="matrix(0.680314,0,0,0.0940527,510.052,186.58)">
                <path d="M75,39.4C75.8,37.7 76.3,35.7 76.3,33.7C76.3,26.4 70.6,20.5 63.4,20.2C63.5,19.7 63.5,19.2 63.5,18.7C63.5,11.1 57.4,5 50,5C42.5,5 36.4,11.1 36.4,18.6C36.4,19.1 36.4,19.6 36.5,20.1L36.4,20.1C28.9,20.1 22.8,26.2 22.8,33.7C22.8,35.9 23.3,37.9 24.2,39.8C18.6,42.7 14.8,48.6 14.8,55.4C14.8,64.6 21.9,72.2 30.9,72.9L30.9,73L44.9,73L44.9,88.715L54.9,88.715L54.9,72.9L68.4,72.9C77.7,72.4 85,64.7 85,55.3C85.1,48.2 81,42.2 75,39.4Z" style="fill:rgb(80,188,238);fill-rule:nonzero;"/>
            </g>
        </g>
    </g>
</svg>
